  0
SECTION
  2
HEADER
  9
$ACADVER
  1
AC1009
  9
$DWGCODEPAGE
  3
ansi_1252
  9
$INSBASE
 10
0.0
 20
0.0
 30
0.0
  9
$EXTMIN
 10
1.000000000000000E+20
 20
1.000000000000000E+20
 30
1.000000000000000E+20
  9
$EXTMAX
 10
-1.000000000000000E+20
 20
-1.000000000000000E+20
 30
-1.000000000000000E+20
  9
$LIMMIN
 10
0.0
 20
0.0
  9
$LIMMAX
 10
12.0
 20
9.0
  9
$ORTHOMODE
 70
     0
  9
$REGENMODE
 70
     1
  9
$FILLMODE
 70
     1
  9
$QTEXTMODE
 70
     0
  9
$MIRRTEXT
 70
     1
  9
$DRAGMODE
 70
     2
  9
$LTSCALE
 40
1.0
  9
$OSMODE
 70
    37
  9
$ATTMODE
 70
     1
  9
$TEXTSIZE
 40
0.2
  9
$TRACEWID
 40
0.05
  9
$TEXTSTYLE
  7
STANDARD
  9
$CLAYER
  8
0
  9
$CELTYPE
  6
BYLAYER
  9
$CECOLOR
 62
   256
  9
$DIMSCALE
 40
1.0
  9
$DIMASZ
 40
0.18
  9
$DIMEXO
 40
0.0625
  9
$DIMDLI
 40
0.38
  9
$DIMRND
 40
0.0
  9
$DIMDLE
 40
0.0
  9
$DIMEXE
 40
0.18
  9
$DIMTP
 40
0.0
  9
$DIMTM
 40
0.0
  9
$DIMTXT
 40
0.18
  9
$DIMCEN
 40
0.09
  9
$DIMTSZ
 40
0.0
  9
$DIMTOL
 70
     0
  9
$DIMLIM
 70
     0
  9
$DIMTIH
 70
     1
  9
$DIMTOH
 70
     1
  9
$DIMSE1
 70
     0
  9
$DIMSE2
 70
     0
  9
$DIMTAD
 70
     0
  9
$DIMZIN
 70
     0
  9
$DIMBLK
  1

  9
$DIMASO
 70
     1
  9
$DIMSHO
 70
     1
  9
$DIMPOST
  1

  9
$DIMAPOST
  1

  9
$DIMALT
 70
     0
  9
$DIMALTD
 70
     2
  9
$DIMALTF
 40
25.4
  9
$DIMLFAC
 40
1.0
  9
$DIMTOFL
 70
     0
  9
$DIMTVP
 40
0.0
  9
$DIMTIX
 70
     0
  9
$DIMSOXD
 70
     0
  9
$DIMSAH
 70
     0
  9
$DIMBLK1
  1

  9
$DIMBLK2
  1

  9
$DIMSTYLE
  2
STANDARD_ACAD
  9
$DIMCLRD
 70
     0
  9
$DIMCLRE
 70
     0
  9
$DIMCLRT
 70
     0
  9
$DIMTFAC
 40
1.0
  9
$DIMGAP
 40
0.09
  9
$LUNITS
 70
     2
  9
$LUPREC
 70
     3
  9
$SKETCHINC
 40
0.1
  9
$FILLETRAD
 40
0.5
  9
$AUNITS
 70
     0
  9
$AUPREC
 70
     0
  9
$MENU
  1
.
  9
$ELEVATION
 40
0.0
  9
$PELEVATION
 40
0.0
  9
$THICKNESS
 40
0.0
  9
$LIMCHECK
 70
     0
  9
$CHAMFERA
 40
0.0
  9
$CHAMFERB
 40
0.0
  9
$SKPOLY
 70
     0
  9
$TDCREATE
 40
2458330.118124213
  9
$TDUPDATE
 40
2458330.118143437
  9
$TDINDWG
 40
0.0000000116
  9
$TDUSRTIMER
 40
0.0000000116
  9
$USRTIMER
 70
     1
  9
$ANGBASE
 50
0.0
  9
$ANGDIR
 70
     0
  9
$PDMODE
 70
     0
  9
$PDSIZE
 40
0.0
  9
$PLINEWID
 40
0.0
  9
$COORDS
 70
     1
  9
$SPLFRAME
 70
     0
  9
$SPLINETYPE
 70
     6
  9
$SPLINESEGS
 70
     8
  9
$ATTDIA
 70
     0
  9
$ATTREQ
 70
     1
  9
$HANDLING
 70
     1
  9
$HANDSEED
  5
479
  9
$SURFTAB1
 70
     6
  9
$SURFTAB2
 70
     6
  9
$SURFTYPE
 70
     6
  9
$SURFU
 70
     6
  9
$SURFV
 70
     6
  9
$UCSNAME
  2

  9
$UCSORG
 10
0.0
 20
0.0
 30
0.0
  9
$UCSXDIR
 10
1.0
 20
0.0
 30
0.0
  9
$UCSYDIR
 10
0.0
 20
1.0
 30
0.0
  9
$PUCSNAME
  2

  9
$PUCSORG
 10
0.0
 20
0.0
 30
0.0
  9
$PUCSXDIR
 10
1.0
 20
0.0
 30
0.0
  9
$PUCSYDIR
 10
0.0
 20
1.0
 30
0.0
  9
$USERI1
 70
     0
  9
$USERI2
 70
     0
  9
$USERI3
 70
     0
  9
$USERI4
 70
     0
  9
$USERI5
 70
     0
  9
$USERR1
 40
0.0
  9
$USERR2
 40
0.0
  9
$USERR3
 40
0.0
  9
$USERR4
 40
0.0
  9
$USERR5
 40
0.0
  9
$WORLDVIEW
 70
     1
  9
$SHADEDGE
 70
     3
  9
$SHADEDIF
 70
    70
  9
$TILEMODE
 70
     1
  9
$MAXACTVP
 70
    64
  9
$PLIMCHECK
 70
     0
  9
$PEXTMIN
 10
1.000000000000000E+20
 20
1.000000000000000E+20
 30
1.000000000000000E+20
  9
$PEXTMAX
 10
-1.000000000000000E+20
 20
-1.000000000000000E+20
 30
-1.000000000000000E+20
  9
$PLIMMIN
 10
0.0
 20
0.0
  9
$PLIMMAX
 10
12.0
 20
9.0
  9
$UNITMODE
 70
     0
  9
$VISRETAIN
 70
     1
  9
$PLINEGEN
 70
     0
  9
$PSLTSCALE
 70
     1
  0
ENDSEC
  0
SECTION
  2
TABLES
  0
TABLE
  2
VPORT
 70
     1
  0
VPORT
  2
*ACTIVE
 70
     0
 10
0.0
 20
0.0
 11
1.0
 21
1.0
 12
10.42990654205607
 22
4.5
 13
0.0
 23
0.0
 14
0.5
 24
0.5
 15
0.5
 25
0.5
 16
0.0
 26
0.0
 36
1.0
 17
0.0
 27
0.0
 37
0.0
 40
9.0
 41
1.972972972850329
 42
50.0
 43
0.0
 44
0.0
 50
0.0
 51
0.0
 71
     0
 72
   100
 73
     1
 74
     3
 75
     0
 76
     0
 77
     0
 78
     0
  0
ENDTAB
  0
TABLE
  2
LTYPE
 70
     1
  0
LTYPE
  2
CONTINUOUS
 70
     0
  3
Solid line
 72
    65
 73
     0
 40
0.0
  0
ENDTAB
  0
TABLE
  2
LAYER
 70
     2
  0
LAYER
  2
0
 70
     0
 62
     7
  6
CONTINUOUS
  0
LAYER
  2
PRINT3
 70
     0
 62
     7
  6
CONTINUOUS
  0
ENDTAB
  0
TABLE
  2
STYLE
 70
     1
  0
STYLE
  2
STANDARD
 70
     0
 40
0.0
 41
1.0
 50
0.0
 71
     0
 42
0.2
  3
txt
  4

  0
ENDTAB
  0
TABLE
  2
VIEW
 70
     0
  0
ENDTAB
  0
TABLE
  2
UCS
 70
     0
  0
ENDTAB
  0
TABLE
  2
APPID
 70
     1
  0
APPID
  2
ACAD
 70
     0
  0
ENDTAB
  0
TABLE
  2
DIMSTYLE
 70
     1
  0
DIMSTYLE
  2
STANDARD_ACAD
 70
     0
  3

  4

  5

  6

  7

 40
1.0
 41
0.18
 42
0.0625
 43
0.38
 44
0.18
 45
0.0
 46
0.0
 47
0.0
 48
0.0
140
0.18
141
0.09
142
0.0
143
25.4
144
1.0
145
0.0
146
1.0
147
0.09
 71
     0
 72
     0
 73
     1
 74
     1
 75
     0
 76
     0
 77
     0
 78
     0
170
     0
171
     2
172
     0
173
     0
174
     0
175
     0
176
     0
177
     0
178
     0
  0
ENDTAB
  0
ENDSEC
  0
SECTION
  2
BLOCKS
  0
BLOCK
  8
0
  2
$MODEL_SPACE
 70
     0
 10
0.0
 20
0.0
 30
0.0
  3
$MODEL_SPACE
  1

  0
ENDBLK
  5
21
  8
0
  0
BLOCK
 67
     1
  8
0
  2
$PAPER_SPACE
 70
     0
 10
0.0
 20
0.0
 30
0.0
  3
$PAPER_SPACE
  1

  0
ENDBLK
  5
1D
 67
     1
  8
0
  0
BLOCK
  8
0
  2
BLOCK_291
 70
     0
 10
0.0
 20
0.0
 30
0.0
  3
BLOCK_291
  1

  0
POLYLINE
  5
36D
  8
PRINT3
 66
     1
 10
0.0
 20
0.0
 30
0.0
 70
     1
  0
VERTEX
  5
36E
  8
PRINT3
 10
275.0062524598386
 20
-132.4402912698586
 30
0.0
  0
VERTEX
  5
36F
  8
PRINT3
 10
275.0062524598386
 20
-132.2960067129748
 30
0.0
  0
VERTEX
  5
370
  8
PRINT3
 10
274.2847591378708
 20
-132.2960067129748
 30
0.0
  0
VERTEX
  5
371
  8
PRINT3
 10
274.2847591378708
 20
-132.150417211431
 30
0.0
  0
VERTEX
  5
372
  8
PRINT3
 10
274.139169636327
 20
-132.150417211431
 30
0.0
  0
VERTEX
  5
373
  8
PRINT3
 10
274.139169636327
 20
-131.7110035487044
 30
0.0
  0
VERTEX
  5
374
  8
PRINT3
 10
274.2847591378708
 20
-131.7110035487044
 30
0.0
  0
VERTEX
  5
375
  8
PRINT3
 10
274.2847591378708
 20
-131.5654140471605
 30
0.0
  0
VERTEX
  5
376
  8
PRINT3
 10
275.0062524598386
 20
-131.5654140471605
 30
0.0
  0
VERTEX
  5
377
  8
PRINT3
 10
275.0062524598386
 20
-131.4210942215022
 30
0.0
  0
VERTEX
  5
378
  8
PRINT3
 10
275.1583666846834
 20
-131.4210942215022
 30
0.0
  0
VERTEX
  5
379
  8
PRINT3
 10
275.1583666846834
 20
-131.7174930032306
 30
0.0
  0
VERTEX
  5
37A
  8
PRINT3
 10
274.8697623021412
 20
-131.7174930032306
 30
0.0
  0
VERTEX
  5
37B
  8
PRINT3
 10
274.8697623021412
 20
-132.1438924881302
 30
0.0
  0
VERTEX
  5
37C
  8
PRINT3
 10
275.1583666846834
 20
-132.1438924881302
 30
0.0
  0
VERTEX
  5
37D
  8
PRINT3
 10
275.1583666846834
 20
-132.4402912698586
 30
0.0
  0
SEQEND
  5
37E
  8
PRINT3
  0
POLYLINE
  5
37F
  8
PRINT3
 66
     1
 10
0.0
 20
0.0
 30
0.0
 70
     1
  0
VERTEX
  5
380
  8
PRINT3
 10
274.291248592397
 20
-131.7174930032306
 30
0.0
  0
VERTEX
  5
381
  8
PRINT3
 10
274.291248592397
 20
-132.1438924881302
 30
0.0
  0
VERTEX
  5
382
  8
PRINT3
 10
274.7176480772966
 20
-132.1438924881302
 30
0.0
  0
VERTEX
  5
383
  8
PRINT3
 10
274.7176480772966
 20
-131.7174930032306
 30
0.0
  0
SEQEND
  5
384
  8
PRINT3
  0
POLYLINE
  5
385
  8
PRINT3
 66
     1
 10
0.0
 20
0.0
 30
0.0
 70
     1
  0
VERTEX
  5
386
  8
PRINT3
 10
275.0062524598386
 20
-131.1401431630481
 30
0.0
  0
VERTEX
  5
387
  8
PRINT3
 10
275.0062524598386
 20
-130.9958586061644
 30
0.0
  0
VERTEX
  5
388
  8
PRINT3
 10
274.291248592397
 20
-130.9958586061644
 30
0.0
  0
VERTEX
  5
389
  8
PRINT3
 10
274.291248592397
 20
-131.1401431630481
 30
0.0
  0
VERTEX
  5
38A
  8
PRINT3
 10
274.139169636327
 20
-131.1401431630481
 30
0.0
  0
VERTEX
  5
38B
  8
PRINT3
 10
274.139169636327
 20
-130.410855441894
 30
0.0
  0
VERTEX
  5
38C
  8
PRINT3
 10
274.2847591378708
 20
-130.410855441894
 30
0.0
  0
VERTEX
  5
38D
  8
PRINT3
 10
274.2847591378708
 20
-130.2652659403501
 30
0.0
  0
VERTEX
  5
38E
  8
PRINT3
 10
274.5798529749392
 20
-130.2652659403501
 30
0.0
  0
VERTEX
  5
38F
  8
PRINT3
 10
274.5798529749392
 20
-130.410855441894
 30
0.0
  0
VERTEX
  5
390
  8
PRINT3
 10
274.7241728005975
 20
-130.410855441894
 30
0.0
  0
VERTEX
  5
391
  8
PRINT3
 10
274.7241728005975
 20
-130.5551399987777
 30
0.0
  0
VERTEX
  5
392
  8
PRINT3
 10
274.8619679029549
 20
-130.5551399987777
 30
0.0
  0
VERTEX
  5
393
  8
PRINT3
 10
274.8619679029549
 20
-130.410855441894
 30
0.0
  0
VERTEX
  5
394
  8
PRINT3
 10
275.0062524598386
 20
-130.410855441894
 30
0.0
  0
VERTEX
  5
395
  8
PRINT3
 10
275.0062524598386
 20
-130.1209461146918
 30
0.0
  0
VERTEX
  5
396
  8
PRINT3
 10
275.1583666846834
 20
-130.1209461146918
 30
0.0
  0
VERTEX
  5
397
  8
PRINT3
 10
275.1583666846834
 20
-130.4173448964202
 30
0.0
  0
VERTEX
  5
398
  8
PRINT3
 10
275.0140468590251
 20
-130.4173448964202
 30
0.0
  0
VERTEX
  5
399
  8
PRINT3
 10
275.0140468590251
 20
-130.5616647220785
 30
0.0
  0
VERTEX
  5
39A
  8
PRINT3
 10
274.8697623021412
 20
-130.5616647220785
 30
0.0
  0
VERTEX
  5
39B
  8
PRINT3
 10
274.8697623021412
 20
-130.7059492789622
 30
0.0
  0
VERTEX
  5
39C
  8
PRINT3
 10
274.7241728005975
 20
-130.7059492789622
 30
0.0
  0
VERTEX
  5
39D
  8
PRINT3
 10
274.7241728005975
 20
-130.8437443813197
 30
0.0
  0
VERTEX
  5
39E
  8
PRINT3
 10
275.1583666846834
 20
-130.8437443813197
 30
0.0
  0
VERTEX
  5
39F
  8
PRINT3
 10
275.1583666846834
 20
-131.1401431630481
 30
0.0
  0
SEQEND
  5
3A0
  8
PRINT3
  0
POLYLINE
  5
3A1
  8
PRINT3
 66
     1
 10
0.0
 20
0.0
 30
0.0
 70
     1
  0
VERTEX
  5
3A2
  8
PRINT3
 10
274.573363520413
 20
-130.4173448964202
 30
0.0
  0
VERTEX
  5
3A3
  8
PRINT3
 10
274.291248592397
 20
-130.4173448964202
 30
0.0
  0
VERTEX
  5
3A4
  8
PRINT3
 10
274.291248592397
 20
-130.8437443813197
 30
0.0
  0
VERTEX
  5
3A5
  8
PRINT3
 10
274.573363520413
 20
-130.8437443813197
 30
0.0
  0
SEQEND
  5
3A6
  8
PRINT3
  0
POLYLINE
  5
3A7
  8
PRINT3
 66
     1
 10
0.0
 20
0.0
 30
0.0
 70
     1
  0
VERTEX
  5
3A8
  8
PRINT3
 10
275.0062524598386
 20
-129.984314881896
 30
0.0
  0
VERTEX
  5
3A9
  8
PRINT3
 10
275.0062524598386
 20
-129.8400303250123
 30
0.0
  0
VERTEX
  5
3AA
  8
PRINT3
 10
274.291248592397
 20
-129.8400303250123
 30
0.0
  0
VERTEX
  5
3AB
  8
PRINT3
 10
274.291248592397
 20
-129.984314881896
 30
0.0
  0
VERTEX
  5
3AC
  8
PRINT3
 10
274.139169636327
 20
-129.984314881896
 30
0.0
  0
VERTEX
  5
3AD
  8
PRINT3
 10
274.139169636327
 20
-129.109437659198
 30
0.0
  0
VERTEX
  5
3AE
  8
PRINT3
 10
274.4355684180554
 20
-129.109437659198
 30
0.0
  0
VERTEX
  5
3AF
  8
PRINT3
 10
274.4355684180554
 20
-129.261516615268
 30
0.0
  0
VERTEX
  5
3B0
  8
PRINT3
 10
274.291248592397
 20
-129.261516615268
 30
0.0
  0
VERTEX
  5
3B1
  8
PRINT3
 10
274.291248592397
 20
-129.6879161001676
 30
0.0
  0
VERTEX
  5
3B2
  8
PRINT3
 10
274.573363520413
 20
-129.6879161001676
 30
0.0
  0
VERTEX
  5
3B3
  8
PRINT3
 10
274.573363520413
 20
-129.2550271607419
 30
0.0
  0
VERTEX
  5
3B4
  8
PRINT3
 10
274.7241728005975
 20
-129.2550271607419
 30
0.0
  0
VERTEX
  5
3B5
  8
PRINT3
 10
274.7241728005975
 20
-129.6879161001676
 30
0.0
  0
VERTEX
  5
3B6
  8
PRINT3
 10
275.0062524598386
 20
-129.6879161001676
 30
0.0
  0
VERTEX
  5
3B7
  8
PRINT3
 10
275.0062524598386
 20
-129.261516615268
 30
0.0
  0
VERTEX
  5
3B8
  8
PRINT3
 10
274.8619679029549
 20
-129.261516615268
 30
0.0
  0
VERTEX
  5
3B9
  8
PRINT3
 10
274.8619679029549
 20
-129.109437659198
 30
0.0
  0
VERTEX
  5
3BA
  8
PRINT3
 10
275.1583666846834
 20
-129.109437659198
 30
0.0
  0
VERTEX
  5
3BB
  8
PRINT3
 10
275.1583666846834
 20
-129.984314881896
 30
0.0
  0
SEQEND
  5
3BC
  8
PRINT3
  0
POLYLINE
  5
3BD
  8
PRINT3
 66
     1
 10
0.0
 20
0.0
 30
0.0
 70
     1
  0
VERTEX
  5
3BE
  8
PRINT3
 10
275.0062524598386
 20
-128.8284866007438
 30
0.0
  0
VERTEX
  5
3BF
  8
PRINT3
 10
275.0062524598386
 20
-128.6842020438602
 30
0.0
  0
VERTEX
  5
3C0
  8
PRINT3
 10
274.2847591378708
 20
-128.6842020438602
 30
0.0
  0
VERTEX
  5
3C1
  8
PRINT3
 10
274.2847591378708
 20
-128.5386125423163
 30
0.0
  0
VERTEX
  5
3C2
  8
PRINT3
 10
274.139169636327
 20
-128.5386125423163
 30
0.0
  0
VERTEX
  5
3C3
  8
PRINT3
 10
274.139169636327
 20
-128.0991988795897
 30
0.0
  0
VERTEX
  5
3C4
  8
PRINT3
 10
274.2847591378708
 20
-128.0991988795897
 30
0.0
  0
VERTEX
  5
3C5
  8
PRINT3
 10
274.2847591378708
 20
-127.9536093780459
 30
0.0
  0
VERTEX
  5
3C6
  8
PRINT3
 10
275.0062524598386
 20
-127.9536093780459
 30
0.0
  0
VERTEX
  5
3C7
  8
PRINT3
 10
275.0062524598386
 20
-127.8092895523875
 30
0.0
  0
VERTEX
  5
3C8
  8
PRINT3
 10
275.1583666846834
 20
-127.8092895523875
 30
0.0
  0
VERTEX
  5
3C9
  8
PRINT3
 10
275.1583666846834
 20
-128.1056883341159
 30
0.0
  0
VERTEX
  5
3CA
  8
PRINT3
 10
274.8697623021412
 20
-128.1056883341159
 30
0.0
  0
VERTEX
  5
3CB
  8
PRINT3
 10
274.8697623021412
 20
-128.5320878190155
 30
0.0
  0
VERTEX
  5
3CC
  8
PRINT3
 10
275.1583666846834
 20
-128.5320878190155
 30
0.0
  0
VERTEX
  5
3CD
  8
PRINT3
 10
275.1583666846834
 20
-128.8284866007438
 30
0.0
  0
SEQEND
  5
3CE
  8
PRINT3
  0
POLYLINE
  5
3CF
  8
PRINT3
 66
     1
 10
0.0
 20
0.0
 30
0.0
 70
     1
  0
VERTEX
  5
3D0
  8
PRINT3
 10
274.291248592397
 20
-128.1056883341159
 30
0.0
  0
VERTEX
  5
3D1
  8
PRINT3
 10
274.291248592397
 20
-128.5320878190155
 30
0.0
  0
VERTEX
  5
3D2
  8
PRINT3
 10
274.7176480772966
 20
-128.5320878190155
 30
0.0
  0
VERTEX
  5
3D3
  8
PRINT3
 10
274.7176480772966
 20
-128.1056883341159
 30
0.0
  0
SEQEND
  5
3D4
  8
PRINT3
  0
POLYLINE
  5
3D5
  8
PRINT3
 66
     1
 10
0.0
 20
0.0
 30
0.0
 70
     1
  0
VERTEX
  5
3D6
  8
PRINT3
 10
275.0062524598386
 20
-126.8067746344164
 30
0.0
  0
VERTEX
  5
3D7
  8
PRINT3
 10
275.0062524598386
 20
-126.6624900775327
 30
0.0
  0
VERTEX
  5
3D8
  8
PRINT3
 10
274.291248592397
 20
-126.6624900775327
 30
0.0
  0
VERTEX
  5
3D9
  8
PRINT3
 10
274.291248592397
 20
-126.8067746344164
 30
0.0
  0
VERTEX
  5
3DA
  8
PRINT3
 10
274.139169636327
 20
-126.8067746344164
 30
0.0
  0
VERTEX
  5
3DB
  8
PRINT3
 10
274.139169636327
 20
-125.78757758606
 30
0.0
  0
VERTEX
  5
3DC
  8
PRINT3
 10
274.291248592397
 20
-125.78757758606
 30
0.0
  0
VERTEX
  5
3DD
  8
PRINT3
 10
274.291248592397
 20
-125.9318974117184
 30
0.0
  0
VERTEX
  5
3DE
  8
PRINT3
 10
275.0062524598386
 20
-125.9318974117184
 30
0.0
  0
VERTEX
  5
3DF
  8
PRINT3
 10
275.0062524598386
 20
-125.78757758606
 30
0.0
  0
VERTEX
  5
3E0
  8
PRINT3
 10
275.1583666846834
 20
-125.78757758606
 30
0.0
  0
VERTEX
  5
3E1
  8
PRINT3
 10
275.1583666846834
 20
-126.0839763677885
 30
0.0
  0
VERTEX
  5
3E2
  8
PRINT3
 10
274.291248592397
 20
-126.0839763677885
 30
0.0
  0
VERTEX
  5
3E3
  8
PRINT3
 10
274.291248592397
 20
-126.221771470146
 30
0.0
  0
VERTEX
  5
3E4
  8
PRINT3
 10
274.7241728005975
 20
-126.221771470146
 30
0.0
  0
VERTEX
  5
3E5
  8
PRINT3
 10
274.7241728005975
 20
-126.3725807503305
 30
0.0
  0
VERTEX
  5
3E6
  8
PRINT3
 10
274.291248592397
 20
-126.3725807503305
 30
0.0
  0
VERTEX
  5
3E7
  8
PRINT3
 10
274.291248592397
 20
-126.510375852688
 30
0.0
  0
VERTEX
  5
3E8
  8
PRINT3
 10
275.1583666846834
 20
-126.510375852688
 30
0.0
  0
VERTEX
  5
3E9
  8
PRINT3
 10
275.1583666846834
 20
-126.8067746344164
 30
0.0
  0
SEQEND
  5
3EA
  8
PRINT3
  0
POLYLINE
  5
3EB
  8
PRINT3
 66
     1
 10
0.0
 20
0.0
 30
0.0
 70
     1
  0
VERTEX
  5
3EC
  8
PRINT3
 10
275.0062524598386
 20
-125.506626527606
 30
0.0
  0
VERTEX
  5
3ED
  8
PRINT3
 10
275.0062524598386
 20
-125.3545475715359
 30
0.0
  0
VERTEX
  5
3EE
  8
PRINT3
 10
275.1583666846834
 20
-125.3545475715359
 30
0.0
  0
VERTEX
  5
3EF
  8
PRINT3
 10
275.1583666846834
 20
-125.506626527606
 30
0.0
  0
SEQEND
  5
3F0
  8
PRINT3
  0
POLYLINE
  5
3F1
  8
PRINT3
 66
     1
 10
0.0
 20
0.0
 30
0.0
 70
     1
  0
VERTEX
  5
3F2
  8
PRINT3
 10
275.0062524598386
 20
-125.0737023194056
 30
0.0
  0
VERTEX
  5
3F3
  8
PRINT3
 10
275.0062524598386
 20
-124.9294177625219
 30
0.0
  0
VERTEX
  5
3F4
  8
PRINT3
 10
274.291248592397
 20
-124.9294177625219
 30
0.0
  0
VERTEX
  5
3F5
  8
PRINT3
 10
274.291248592397
 20
-125.0737023194056
 30
0.0
  0
VERTEX
  5
3F6
  8
PRINT3
 10
274.139169636327
 20
-125.0737023194056
 30
0.0
  0
VERTEX
  5
3F7
  8
PRINT3
 10
274.139169636327
 20
-124.3444145982515
 30
0.0
  0
VERTEX
  5
3F8
  8
PRINT3
 10
274.2847591378708
 20
-124.3444145982515
 30
0.0
  0
VERTEX
  5
3F9
  8
PRINT3
 10
274.2847591378708
 20
-124.1988250967076
 30
0.0
  0
VERTEX
  5
3FA
  8
PRINT3
 10
274.5798529749392
 20
-124.1988250967076
 30
0.0
  0
VERTEX
  5
3FB
  8
PRINT3
 10
274.5798529749392
 20
-124.3444145982515
 30
0.0
  0
VERTEX
  5
3FC
  8
PRINT3
 10
274.7241728005975
 20
-124.3444145982515
 30
0.0
  0
VERTEX
  5
3FD
  8
PRINT3
 10
274.7241728005975
 20
-124.4886991551352
 30
0.0
  0
VERTEX
  5
3FE
  8
PRINT3
 10
274.8619679029549
 20
-124.4886991551352
 30
0.0
  0
VERTEX
  5
3FF
  8
PRINT3
 10
274.8619679029549
 20
-124.3444145982515
 30
0.0
  0
VERTEX
  5
400
  8
PRINT3
 10
275.0062524598386
 20
-124.3444145982515
 30
0.0
  0
VERTEX
  5
401
  8
PRINT3
 10
275.0062524598386
 20
-124.0545052710492
 30
0.0
  0
VERTEX
  5
402
  8
PRINT3
 10
275.1583666846834
 20
-124.0545052710492
 30
0.0
  0
VERTEX
  5
403
  8
PRINT3
 10
275.1583666846834
 20
-124.3509040527776
 30
0.0
  0
VERTEX
  5
404
  8
PRINT3
 10
275.0140468590251
 20
-124.3509040527776
 30
0.0
  0
VERTEX
  5
405
  8
PRINT3
 10
275.0140468590251
 20
-124.495223878436
 30
0.0
  0
VERTEX
  5
406
  8
PRINT3
 10
274.8697623021412
 20
-124.495223878436
 30
0.0
  0
VERTEX
  5
407
  8
PRINT3
 10
274.8697623021412
 20
-124.6395084353197
 30
0.0
  0
VERTEX
  5
408
  8
PRINT3
 10
274.7241728005975
 20
-124.6395084353197
 30
0.0
  0
VERTEX
  5
409
  8
PRINT3
 10
274.7241728005975
 20
-124.7773035376772
 30
0.0
  0
VERTEX
  5
40A
  8
PRINT3
 10
275.1583666846834
 20
-124.7773035376772
 30
0.0
  0
VERTEX
  5
40B
  8
PRINT3
 10
275.1583666846834
 20
-125.0737023194056
 30
0.0
  0
SEQEND
  5
40C
  8
PRINT3
  0
POLYLINE
  5
40D
  8
PRINT3
 66
     1
 10
0.0
 20
0.0
 30
0.0
 70
     1
  0
VERTEX
  5
40E
  8
PRINT3
 10
274.573363520413
 20
-124.3509040527776
 30
0.0
  0
VERTEX
  5
40F
  8
PRINT3
 10
274.291248592397
 20
-124.3509040527776
 30
0.0
  0
VERTEX
  5
410
  8
PRINT3
 10
274.291248592397
 20
-124.7773035376772
 30
0.0
  0
VERTEX
  5
411
  8
PRINT3
 10
274.573363520413
 20
-124.7773035376772
 30
0.0
  0
SEQEND
  5
412
  8
PRINT3
  0
POLYLINE
  5
413
  8
PRINT3
 66
     1
 10
0.0
 20
0.0
 30
0.0
 70
     1
  0
VERTEX
  5
414
  8
PRINT3
 10
275.0062524598386
 20
-123.9178740382535
 30
0.0
  0
VERTEX
  5
415
  8
PRINT3
 10
275.0062524598386
 20
-123.7735894813698
 30
0.0
  0
VERTEX
  5
416
  8
PRINT3
 10
274.291248592397
 20
-123.7735894813698
 30
0.0
  0
VERTEX
  5
417
  8
PRINT3
 10
274.291248592397
 20
-123.9178740382535
 30
0.0
  0
VERTEX
  5
418
  8
PRINT3
 10
274.139169636327
 20
-123.9178740382535
 30
0.0
  0
VERTEX
  5
419
  8
PRINT3
 10
274.139169636327
 20
-123.0429968155555
 30
0.0
  0
VERTEX
  5
41A
  8
PRINT3
 10
274.4355684180554
 20
-123.0429968155555
 30
0.0
  0
VERTEX
  5
41B
  8
PRINT3
 10
274.4355684180554
 20
-123.1950757716255
 30
0.0
  0
VERTEX
  5
41C
  8
PRINT3
 10
274.291248592397
 20
-123.1950757716255
 30
0.0
  0
VERTEX
  5
41D
  8
PRINT3
 10
274.291248592397
 20
-123.621475256525
 30
0.0
  0
VERTEX
  5
41E
  8
PRINT3
 10
274.573363520413
 20
-123.621475256525
 30
0.0
  0
VERTEX
  5
41F
  8
PRINT3
 10
274.573363520413
 20
-123.1885863170994
 30
0.0
  0
VERTEX
  5
420
  8
PRINT3
 10
274.7241728005975
 20
-123.1885863170994
 30
0.0
  0
VERTEX
  5
421
  8
PRINT3
 10
274.7241728005975
 20
-123.621475256525
 30
0.0
  0
VERTEX
  5
422
  8
PRINT3
 10
275.0062524598386
 20
-123.621475256525
 30
0.0
  0
VERTEX
  5
423
  8
PRINT3
 10
275.0062524598386
 20
-123.1950757716255
 30
0.0
  0
VERTEX
  5
424
  8
PRINT3
 10
274.8619679029549
 20
-123.1950757716255
 30
0.0
  0
VERTEX
  5
425
  8
PRINT3
 10
274.8619679029549
 20
-123.0429968155555
 30
0.0
  0
VERTEX
  5
426
  8
PRINT3
 10
275.1583666846834
 20
-123.0429968155555
 30
0.0
  0
VERTEX
  5
427
  8
PRINT3
 10
275.1583666846834
 20
-123.9178740382535
 30
0.0
  0
SEQEND
  5
428
  8
PRINT3
  0
POLYLINE
  5
429
  8
PRINT3
 66
     1
 10
0.0
 20
0.0
 30
0.0
 70
     1
  0
VERTEX
  5
42A
  8
PRINT3
 10
275.0062524598386
 20
-122.7620457571013
 30
0.0
  0
VERTEX
  5
42B
  8
PRINT3
 10
275.0062524598386
 20
-122.6177612002176
 30
0.0
  0
VERTEX
  5
42C
  8
PRINT3
 10
274.2847591378708
 20
-122.6177612002176
 30
0.0
  0
VERTEX
  5
42D
  8
PRINT3
 10
274.2847591378708
 20
-122.4721716986737
 30
0.0
  0
VERTEX
  5
42E
  8
PRINT3
 10
274.139169636327
 20
-122.4721716986737
 30
0.0
  0
VERTEX
  5
42F
  8
PRINT3
 10
274.139169636327
 20
-122.0327580359472
 30
0.0
  0
VERTEX
  5
430
  8
PRINT3
 10
274.2847591378708
 20
-122.0327580359472
 30
0.0
  0
VERTEX
  5
431
  8
PRINT3
 10
274.2847591378708
 20
-121.8871685344033
 30
0.0
  0
VERTEX
  5
432
  8
PRINT3
 10
275.0062524598386
 20
-121.8871685344033
 30
0.0
  0
VERTEX
  5
433
  8
PRINT3
 10
275.0062524598386
 20
-121.742848708745
 30
0.0
  0
VERTEX
  5
434
  8
PRINT3
 10
275.1583666846834
 20
-121.742848708745
 30
0.0
  0
VERTEX
  5
435
  8
PRINT3
 10
275.1583666846834
 20
-122.0392474904734
 30
0.0
  0
VERTEX
  5
436
  8
PRINT3
 10
274.8697623021412
 20
-122.0392474904734
 30
0.0
  0
VERTEX
  5
437
  8
PRINT3
 10
274.8697623021412
 20
-122.465646975373
 30
0.0
  0
VERTEX
  5
438
  8
PRINT3
 10
275.1583666846834
 20
-122.465646975373
 30
0.0
  0
VERTEX
  5
439
  8
PRINT3
 10
275.1583666846834
 20
-122.7620457571013
 30
0.0
  0
SEQEND
  5
43A
  8
PRINT3
  0
POLYLINE
  5
43B
  8
PRINT3
 66
     1
 10
0.0
 20
0.0
 30
0.0
 70
     1
  0
VERTEX
  5
43C
  8
PRINT3
 10
274.291248592397
 20
-122.0392474904734
 30
0.0
  0
VERTEX
  5
43D
  8
PRINT3
 10
274.291248592397
 20
-122.465646975373
 30
0.0
  0
VERTEX
  5
43E
  8
PRINT3
 10
274.7176480772966
 20
-122.465646975373
 30
0.0
  0
VERTEX
  5
43F
  8
PRINT3
 10
274.7176480772966
 20
-122.0392474904734
 30
0.0
  0
SEQEND
  5
440
  8
PRINT3
  0
POLYLINE
  5
441
  8
PRINT3
 66
     1
 10
0.0
 20
0.0
 30
0.0
 70
     1
  0
VERTEX
  5
442
  8
PRINT3
 10
275.0062524598386
 20
-121.461897650291
 30
0.0
  0
VERTEX
  5
443
  8
PRINT3
 10
275.0062524598386
 20
-121.3176130934072
 30
0.0
  0
VERTEX
  5
444
  8
PRINT3
 10
274.291248592397
 20
-121.3176130934072
 30
0.0
  0
VERTEX
  5
445
  8
PRINT3
 10
274.291248592397
 20
-121.461897650291
 30
0.0
  0
VERTEX
  5
446
  8
PRINT3
 10
274.139169636327
 20
-121.461897650291
 30
0.0
  0
VERTEX
  5
447
  8
PRINT3
 10
274.139169636327
 20
-120.7326099291367
 30
0.0
  0
VERTEX
  5
448
  8
PRINT3
 10
274.2847591378708
 20
-120.7326099291367
 30
0.0
  0
VERTEX
  5
449
  8
PRINT3
 10
274.2847591378708
 20
-120.5870204275929
 30
0.0
  0
VERTEX
  5
44A
  8
PRINT3
 10
275.0140468590251
 20
-120.5870204275929
 30
0.0
  0
VERTEX
  5
44B
  8
PRINT3
 10
275.0140468590251
 20
-120.7326099291367
 30
0.0
  0
VERTEX
  5
44C
  8
PRINT3
 10
275.1583666846834
 20
-120.7326099291367
 30
0.0
  0
VERTEX
  5
44D
  8
PRINT3
 10
275.1583666846834
 20
-121.461897650291
 30
0.0
  0
SEQEND
  5
44E
  8
PRINT3
  0
POLYLINE
  5
44F
  8
PRINT3
 66
     1
 10
0.0
 20
0.0
 30
0.0
 70
     1
  0
VERTEX
  5
450
  8
PRINT3
 10
275.0062524598386
 20
-120.7390993836629
 30
0.0
  0
VERTEX
  5
451
  8
PRINT3
 10
274.291248592397
 20
-120.7390993836629
 30
0.0
  0
VERTEX
  5
452
  8
PRINT3
 10
274.291248592397
 20
-121.1654988685625
 30
0.0
  0
VERTEX
  5
453
  8
PRINT3
 10
275.0062524598386
 20
-121.1654988685625
 30
0.0
  0
SEQEND
  5
454
  8
PRINT3
  0
ENDBLK
  5
456
  8
0
  0
ENDSEC
  0
SECTION
  2
ENTITIES
  0
POLYLINE
  5
6F
  8
PRINT3
 66
     1
 10
0.0
 20
0.0
 30
0.0
 70
     1
  0
VERTEX
  5
70
  8
PRINT3
 10
266.3773350571043
 20
-137.2702866810055
 30
0.0
  0
VERTEX
  5
71
  8
PRINT3
 10
266.4495098075203
 20
-137.2702866810055
 30
0.0
  0
VERTEX
  5
72
  8
PRINT3
 10
266.4495098075203
 20
-137.1974573624474
 30
0.0
  0
VERTEX
  5
73
  8
PRINT3
 10
266.7421362180374
 20
-137.1974573624474
 30
0.0
  0
VERTEX
  5
74
  8
PRINT3
 10
266.7421362180374
 20
-137.3456653702228
 30
0.0
  0
VERTEX
  5
75
  8
PRINT3
 10
266.6666886269105
 20
-137.3456653702228
 30
0.0
  0
VERTEX
  5
76
  8
PRINT3
 10
266.6666886269105
 20
-137.2735250707617
 30
0.0
  0
VERTEX
  5
77
  8
PRINT3
 10
266.4534027654186
 20
-137.2735250707617
 30
0.0
  0
VERTEX
  5
78
  8
PRINT3
 10
266.4534027654186
 20
-137.6311259821306
 30
0.0
  0
VERTEX
  5
79
  8
PRINT3
 10
266.6666886269105
 20
-137.6311259821306
 30
0.0
  0
VERTEX
  5
7A
  8
PRINT3
 10
266.6666886269105
 20
-137.5589856826695
 30
0.0
  0
VERTEX
  5
7B
  8
PRINT3
 10
266.7421362180374
 20
-137.5589856826695
 30
0.0
  0
VERTEX
  5
7C
  8
PRINT3
 10
266.7421362180374
 20
-137.7072625923546
 30
0.0
  0
VERTEX
  5
7D
  8
PRINT3
 10
266.4495098075203
 20
-137.7072625923546
 30
0.0
  0
VERTEX
  5
7E
  8
PRINT3
 10
266.4495098075203
 20
-137.6350533909838
 30
0.0
  0
VERTEX
  5
7F
  8
PRINT3
 10
266.3773350571043
 20
-137.6350533909838
 30
0.0
  0
SEQEND
  5
80
  8
PRINT3
  0
POLYLINE
  5
81
  8
PRINT3
 66
     1
 10
0.0
 20
0.0
 30
0.0
 70
     1
  0
VERTEX
  5
82
  8
PRINT3
 10
265.8008672295575
 20
-137.2735250707617
 30
0.0
  0
VERTEX
  5
83
  8
PRINT3
 10
265.7286924791415
 20
-137.2735250707617
 30
0.0
  0
VERTEX
  5
84
  8
PRINT3
 10
265.7286924791415
 20
-137.1974573624474
 30
0.0
  0
VERTEX
  5
85
  8
PRINT3
 10
265.8769349378718
 20
-137.1974573624474
 30
0.0
  0
VERTEX
  5
86
  8
PRINT3
 10
265.8769349378718
 20
-137.6311259821306
 30
0.0
  0
VERTEX
  5
87
  8
PRINT3
 10
265.9458712985316
 20
-137.6311259821306
 30
0.0
  0
VERTEX
  5
88
  8
PRINT3
 10
265.9458712985316
 20
-137.4146361818375
 30
0.0
  0
VERTEX
  5
89
  8
PRINT3
 10
266.0212844387037
 20
-137.4146361818375
 30
0.0
  0
VERTEX
  5
8A
  8
PRINT3
 10
266.0212844387037
 20
-137.6311259821306
 30
0.0
  0
VERTEX
  5
8B
  8
PRINT3
 10
266.0902207993636
 20
-137.6311259821306
 30
0.0
  0
VERTEX
  5
8C
  8
PRINT3
 10
266.0902207993636
 20
-137.1974573624474
 30
0.0
  0
VERTEX
  5
8D
  8
PRINT3
 10
266.2384977090488
 20
-137.1974573624474
 30
0.0
  0
VERTEX
  5
8E
  8
PRINT3
 10
266.2384977090488
 20
-137.2735250707617
 30
0.0
  0
VERTEX
  5
8F
  8
PRINT3
 10
266.1663229586327
 20
-137.2735250707617
 30
0.0
  0
VERTEX
  5
90
  8
PRINT3
 10
266.1663229586327
 20
-137.7072625923546
 30
0.0
  0
VERTEX
  5
91
  8
PRINT3
 10
265.8008672295575
 20
-137.7072625923546
 30
0.0
  0
SEQEND
  5
92
  8
PRINT3
  0
POLYLINE
  5
93
  8
PRINT3
 66
     1
 10
0.0
 20
0.0
 30
0.0
 70
     1
  0
VERTEX
  5
94
  8
PRINT3
 10
266.3773350571043
 20
-141.1117059508785
 30
0.0
  0
VERTEX
  5
95
  8
PRINT3
 10
266.4495098075203
 20
-141.1117059508785
 30
0.0
  0
VERTEX
  5
96
  8
PRINT3
 10
266.4495098075203
 20
-141.0388766323203
 30
0.0
  0
VERTEX
  5
97
  8
PRINT3
 10
266.7421362180374
 20
-141.0388766323203
 30
0.0
  0
VERTEX
  5
98
  8
PRINT3
 10
266.7421362180374
 20
-141.1871190910506
 30
0.0
  0
VERTEX
  5
99
  8
PRINT3
 10
266.6666886269105
 20
-141.1871190910506
 30
0.0
  0
VERTEX
  5
9A
  8
PRINT3
 10
266.6666886269105
 20
-141.1149443406347
 30
0.0
  0
VERTEX
  5
9B
  8
PRINT3
 10
266.4534027654186
 20
-141.1149443406347
 30
0.0
  0
VERTEX
  5
9C
  8
PRINT3
 10
266.4534027654186
 20
-141.4725797029584
 30
0.0
  0
VERTEX
  5
9D
  8
PRINT3
 10
266.6666886269105
 20
-141.4725797029584
 30
0.0
  0
VERTEX
  5
9E
  8
PRINT3
 10
266.6666886269105
 20
-141.4004049525425
 30
0.0
  0
VERTEX
  5
9F
  8
PRINT3
 10
266.7421362180374
 20
-141.4004049525425
 30
0.0
  0
VERTEX
  5
A0
  8
PRINT3
 10
266.7421362180374
 20
-141.5486818622276
 30
0.0
  0
VERTEX
  5
A1
  8
PRINT3
 10
266.4495098075203
 20
-141.5486818622276
 30
0.0
  0
VERTEX
  5
A2
  8
PRINT3
 10
266.4495098075203
 20
-141.4764726608568
 30
0.0
  0
VERTEX
  5
A3
  8
PRINT3
 10
266.3773350571043
 20
-141.4764726608568
 30
0.0
  0
SEQEND
  5
A4
  8
PRINT3
  0
POLYLINE
  5
A5
  8
PRINT3
 66
     1
 10
0.0
 20
0.0
 30
0.0
 70
     1
  0
VERTEX
  5
A6
  8
PRINT3
 10
265.8008672295575
 20
-141.1149443406347
 30
0.0
  0
VERTEX
  5
A7
  8
PRINT3
 10
265.7286924791415
 20
-141.1149443406347
 30
0.0
  0
VERTEX
  5
A8
  8
PRINT3
 10
265.7286924791415
 20
-141.0388766323203
 30
0.0
  0
VERTEX
  5
A9
  8
PRINT3
 10
265.8769349378718
 20
-141.0388766323203
 30
0.0
  0
VERTEX
  5
AA
  8
PRINT3
 10
265.8769349378718
 20
-141.4725797029584
 30
0.0
  0
VERTEX
  5
AB
  8
PRINT3
 10
265.9458712985316
 20
-141.4725797029584
 30
0.0
  0
VERTEX
  5
AC
  8
PRINT3
 10
265.9458712985316
 20
-141.2560554517105
 30
0.0
  0
VERTEX
  5
AD
  8
PRINT3
 10
266.0212844387037
 20
-141.2560554517105
 30
0.0
  0
VERTEX
  5
AE
  8
PRINT3
 10
266.0212844387037
 20
-141.4725797029584
 30
0.0
  0
VERTEX
  5
AF
  8
PRINT3
 10
266.0902207993636
 20
-141.4725797029584
 30
0.0
  0
VERTEX
  5
B0
  8
PRINT3
 10
266.0902207993636
 20
-141.0388766323203
 30
0.0
  0
VERTEX
  5
B1
  8
PRINT3
 10
266.2384977090488
 20
-141.0388766323203
 30
0.0
  0
VERTEX
  5
B2
  8
PRINT3
 10
266.2384977090488
 20
-141.1149443406347
 30
0.0
  0
VERTEX
  5
B3
  8
PRINT3
 10
266.1663229586327
 20
-141.1149443406347
 30
0.0
  0
VERTEX
  5
B4
  8
PRINT3
 10
266.1663229586327
 20
-141.5486818622276
 30
0.0
  0
VERTEX
  5
B5
  8
PRINT3
 10
265.8008672295575
 20
-141.5486818622276
 30
0.0
  0
SEQEND
  5
B6
  8
PRINT3
  0
CIRCLE
  5
B7
  8
PRINT3
 10
-267.0469647261262
 20
-124.5773873786232
 30
0.0
 40
0.0666834610289584
210
0.0
220
0.0
230
-1.0
  0
CIRCLE
  5
B8
  8
PRINT3
 10
-267.0469647261261
 20
-132.9280576781848
 30
0.0
 40
0.0666834610290721
210
0.0
220
0.0
230
-1.0
  0
POLYLINE
  5
B9
  8
PRINT3
 66
     1
 10
0.0
 20
0.0
 30
0.0
 70
     1
  0
VERTEX
  5
BA
  8
PRINT3
 10
270.6415019939723
 20
-122.9471643972599
 30
0.0
  0
VERTEX
  5
BB
  8
PRINT3
 10
270.3561791858839
 20
-122.9471643972599
 30
0.0
  0
VERTEX
  5
BC
  8
PRINT3
 10
270.3561791858839
 20
-123.0393551524452
 30
0.0
  0
VERTEX
  5
BD
  8
PRINT3
 10
270.6415019939723
 20
-123.0393551524452
 30
0.0
  0
SEQEND
  5
BE
  8
PRINT3
  0
POLYLINE
  5
BF
  8
PRINT3
 66
     1
 10
0.0
 20
0.0
 30
0.0
 70
     1
  0
VERTEX
  5
C0
  8
PRINT3
 10
270.2544110652497
 20
-122.9428235769485
 30
0.0
  0
VERTEX
  5
C1
  8
PRINT3
 10
270.3509770917012
 20
-122.9428235769485
 30
0.0
  0
VERTEX
  5
C2
  8
PRINT3
 10
270.3509770917012
 20
-122.8462920014518
 30
0.0
  0
VERTEX
  5
C3
  8
PRINT3
 10
270.6458772652386
 20
-122.8462920014518
 30
0.0
  0
VERTEX
  5
C4
  8
PRINT3
 10
270.6458772652386
 20
-122.9428235769485
 30
0.0
  0
VERTEX
  5
C5
  8
PRINT3
 10
270.7424088407353
 20
-122.9428235769485
 30
0.0
  0
VERTEX
  5
C6
  8
PRINT3
 10
270.7424088407353
 20
-123.1411232730795
 30
0.0
  0
VERTEX
  5
C7
  8
PRINT3
 10
270.3561791858839
 20
-123.1411232730795
 30
0.0
  0
VERTEX
  5
C8
  8
PRINT3
 10
270.3561791858839
 20
-123.2324872053483
 30
0.0
  0
VERTEX
  5
C9
  8
PRINT3
 10
270.7424088407353
 20
-123.2324872053483
 30
0.0
  0
VERTEX
  5
CA
  8
PRINT3
 10
270.7424088407353
 20
-123.3342553259826
 30
0.0
  0
VERTEX
  5
CB
  8
PRINT3
 10
270.3509770917012
 20
-123.3342553259826
 30
0.0
  0
VERTEX
  5
CC
  8
PRINT3
 10
270.3509770917012
 20
-123.2377237504859
 30
0.0
  0
VERTEX
  5
CD
  8
PRINT3
 10
270.2544110652497
 20
-123.2377237504859
 30
0.0
  0
SEQEND
  5
CE
  8
PRINT3
  0
POLYLINE
  5
CF
  8
PRINT3
 66
     1
 10
0.0
 20
0.0
 30
0.0
 70
     1
  0
VERTEX
  5
D0
  8
PRINT3
 10
269.6805959612264
 20
-122.9428235769485
 30
0.0
  0
VERTEX
  5
D1
  8
PRINT3
 10
269.7771275367231
 20
-122.9428235769485
 30
0.0
  0
VERTEX
  5
D2
  8
PRINT3
 10
269.7771275367231
 20
-122.8462920014518
 30
0.0
  0
VERTEX
  5
D3
  8
PRINT3
 10
270.0720277102605
 20
-122.8462920014518
 30
0.0
  0
VERTEX
  5
D4
  8
PRINT3
 10
270.0720277102605
 20
-123.0436959727566
 30
0.0
  0
VERTEX
  5
D5
  8
PRINT3
 10
269.9711208634976
 20
-123.0436959727566
 30
0.0
  0
VERTEX
  5
D6
  8
PRINT3
 10
269.9711208634976
 20
-122.9471643972599
 30
0.0
  0
VERTEX
  5
D7
  8
PRINT3
 10
269.7823640818607
 20
-122.9471643972599
 30
0.0
  0
VERTEX
  5
D8
  8
PRINT3
 10
269.7823640818607
 20
-123.2324872053483
 30
0.0
  0
VERTEX
  5
D9
  8
PRINT3
 10
270.0720277102605
 20
-123.2324872053483
 30
0.0
  0
VERTEX
  5
DA
  8
PRINT3
 10
270.0720277102605
 20
-123.3342553259826
 30
0.0
  0
VERTEX
  5
DB
  8
PRINT3
 10
269.7771275367231
 20
-123.3342553259826
 30
0.0
  0
VERTEX
  5
DC
  8
PRINT3
 10
269.7771275367231
 20
-123.2377237504859
 30
0.0
  0
VERTEX
  5
DD
  8
PRINT3
 10
269.6805959612264
 20
-123.2377237504859
 30
0.0
  0
SEQEND
  5
DE
  8
PRINT3
  0
POLYLINE
  5
DF
  8
PRINT3
 66
     1
 10
0.0
 20
0.0
 30
0.0
 70
     1
  0
VERTEX
  5
E0
  8
PRINT3
 10
269.111500638018
 20
-123.1411232730795
 30
0.0
  0
VERTEX
  5
E1
  8
PRINT3
 10
269.111500638018
 20
-123.2324872053483
 30
0.0
  0
VERTEX
  5
E2
  8
PRINT3
 10
269.3002574196548
 20
-123.2324872053483
 30
0.0
  0
VERTEX
  5
E3
  8
PRINT3
 10
269.3002574196548
 20
-123.1411232730795
 30
0.0
  0
SEQEND
  5
E4
  8
PRINT3
  0
POLYLINE
  5
E5
  8
PRINT3
 66
     1
 10
0.0
 20
0.0
 30
0.0
 70
     1
  0
VERTEX
  5
E6
  8
PRINT3
 10
269.0097325173837
 20
-123.0393551524452
 30
0.0
  0
VERTEX
  5
E7
  8
PRINT3
 10
269.3002574196548
 20
-123.0393551524452
 30
0.0
  0
VERTEX
  5
E8
  8
PRINT3
 10
269.3002574196548
 20
-122.9471643972599
 30
0.0
  0
VERTEX
  5
E9
  8
PRINT3
 10
269.0097325173837
 20
-122.9471643972599
 30
0.0
  0
VERTEX
  5
EA
  8
PRINT3
 10
269.0097325173837
 20
-122.8462920014518
 30
0.0
  0
VERTEX
  5
EB
  8
PRINT3
 10
269.3045982399663
 20
-122.8462920014518
 30
0.0
  0
VERTEX
  5
EC
  8
PRINT3
 10
269.3045982399663
 20
-122.9428235769485
 30
0.0
  0
VERTEX
  5
ED
  8
PRINT3
 10
269.4011642664178
 20
-122.9428235769485
 30
0.0
  0
VERTEX
  5
EE
  8
PRINT3
 10
269.4011642664178
 20
-123.2324872053483
 30
0.0
  0
VERTEX
  5
EF
  8
PRINT3
 10
269.4977302928694
 20
-123.2324872053483
 30
0.0
  0
VERTEX
  5
F0
  8
PRINT3
 10
269.4977302928694
 20
-123.3342553259826
 30
0.0
  0
VERTEX
  5
F1
  8
PRINT3
 10
269.3968234461064
 20
-123.3342553259826
 30
0.0
  0
VERTEX
  5
F2
  8
PRINT3
 10
269.3968234461064
 20
-123.2377237504859
 30
0.0
  0
VERTEX
  5
F3
  8
PRINT3
 10
269.3045982399663
 20
-123.2377237504859
 30
0.0
  0
VERTEX
  5
F4
  8
PRINT3
 10
269.3045982399663
 20
-123.3342553259826
 30
0.0
  0
VERTEX
  5
F5
  8
PRINT3
 10
269.1062640928805
 20
-123.3342553259826
 30
0.0
  0
VERTEX
  5
F6
  8
PRINT3
 10
269.1062640928805
 20
-123.2377237504859
 30
0.0
  0
VERTEX
  5
F7
  8
PRINT3
 10
269.0097325173837
 20
-123.2377237504859
 30
0.0
  0
SEQEND
  5
F8
  8
PRINT3
  0
POLYLINE
  5
F9
  8
PRINT3
 66
     1
 10
0.0
 20
0.0
 30
0.0
 70
     1
  0
VERTEX
  5
FA
  8
PRINT3
 10
268.439775920304
 20
-123.0436959727566
 30
0.0
  0
VERTEX
  5
FB
  8
PRINT3
 10
268.439775920304
 20
-123.2324872053483
 30
0.0
  0
VERTEX
  5
FC
  8
PRINT3
 10
268.7250987283924
 20
-123.2324872053483
 30
0.0
  0
VERTEX
  5
FD
  8
PRINT3
 10
268.7250987283924
 20
-122.9471643972599
 30
0.0
  0
VERTEX
  5
FE
  8
PRINT3
 10
268.5363074958007
 20
-122.9471643972599
 30
0.0
  0
VERTEX
  5
FF
  8
PRINT3
 10
268.5363074958007
 20
-123.0436959727566
 30
0.0
  0
SEQEND
  5
100
  8
PRINT3
  0
POLYLINE
  5
101
  8
PRINT3
 66
     1
 10
0.0
 20
0.0
 30
0.0
 70
     1
  0
VERTEX
  5
102
  8
PRINT3
 10
268.2414417732182
 20
-123.4256192582514
 30
0.0
  0
VERTEX
  5
103
  8
PRINT3
 10
268.3379733487149
 20
-123.4256192582514
 30
0.0
  0
VERTEX
  5
104
  8
PRINT3
 10
268.3379733487149
 20
-122.9471643972599
 30
0.0
  0
VERTEX
  5
105
  8
PRINT3
 10
268.2414417732182
 20
-122.9471643972599
 30
0.0
  0
VERTEX
  5
106
  8
PRINT3
 10
268.2414417732182
 20
-122.8462920014518
 30
0.0
  0
VERTEX
  5
107
  8
PRINT3
 10
268.439775920304
 20
-122.8462920014518
 30
0.0
  0
VERTEX
  5
108
  8
PRINT3
 10
268.439775920304
 20
-122.9428235769485
 30
0.0
  0
VERTEX
  5
109
  8
PRINT3
 10
268.5319666754893
 20
-122.9428235769485
 30
0.0
  0
VERTEX
  5
10A
  8
PRINT3
 10
268.5319666754893
 20
-122.8462920014518
 30
0.0
  0
VERTEX
  5
10B
  8
PRINT3
 10
268.7294395487038
 20
-122.8462920014518
 30
0.0
  0
VERTEX
  5
10C
  8
PRINT3
 10
268.7294395487038
 20
-122.9428235769485
 30
0.0
  0
VERTEX
  5
10D
  8
PRINT3
 10
268.8268668490267
 20
-122.9428235769485
 30
0.0
  0
VERTEX
  5
10E
  8
PRINT3
 10
268.8268668490267
 20
-123.2377237504859
 30
0.0
  0
VERTEX
  5
10F
  8
PRINT3
 10
268.7294395487038
 20
-123.2377237504859
 30
0.0
  0
VERTEX
  5
110
  8
PRINT3
 10
268.7294395487038
 20
-123.3342553259826
 30
0.0
  0
VERTEX
  5
111
  8
PRINT3
 10
268.439775920304
 20
-123.3342553259826
 30
0.0
  0
VERTEX
  5
112
  8
PRINT3
 10
268.439775920304
 20
-123.4256192582514
 30
0.0
  0
VERTEX
  5
113
  8
PRINT3
 10
268.5363074958007
 20
-123.4256192582514
 30
0.0
  0
VERTEX
  5
114
  8
PRINT3
 10
268.5363074958007
 20
-123.5273873788857
 30
0.0
  0
VERTEX
  5
115
  8
PRINT3
 10
268.2414417732182
 20
-123.5273873788857
 30
0.0
  0
SEQEND
  5
116
  8
PRINT3
  0
POLYLINE
  5
117
  8
PRINT3
 66
     1
 10
0.0
 20
0.0
 30
0.0
 70
     1
  0
VERTEX
  5
118
  8
PRINT3
 10
267.6675922182401
 20
-123.2324872053483
 30
0.0
  0
VERTEX
  5
119
  8
PRINT3
 10
267.9581171205112
 20
-123.2324872053483
 30
0.0
  0
VERTEX
  5
11A
  8
PRINT3
 10
267.9581171205112
 20
-123.1411232730795
 30
0.0
  0
VERTEX
  5
11B
  8
PRINT3
 10
267.7641237937368
 20
-123.1411232730795
 30
0.0
  0
VERTEX
  5
11C
  8
PRINT3
 10
267.7641237937368
 20
-123.0436959727566
 30
0.0
  0
VERTEX
  5
11D
  8
PRINT3
 10
267.6675922182401
 20
-123.0436959727566
 30
0.0
  0
VERTEX
  5
11E
  8
PRINT3
 10
267.6675922182401
 20
-122.9428235769485
 30
0.0
  0
VERTEX
  5
11F
  8
PRINT3
 10
267.7641237937368
 20
-122.9428235769485
 30
0.0
  0
VERTEX
  5
120
  8
PRINT3
 10
267.7641237937368
 20
-122.8462920014518
 30
0.0
  0
VERTEX
  5
121
  8
PRINT3
 10
268.0590239672742
 20
-122.8462920014518
 30
0.0
  0
VERTEX
  5
122
  8
PRINT3
 10
268.0590239672742
 20
-122.9471643972599
 30
0.0
  0
VERTEX
  5
123
  8
PRINT3
 10
267.7693603388744
 20
-122.9471643972599
 30
0.0
  0
VERTEX
  5
124
  8
PRINT3
 10
267.7693603388744
 20
-123.0393551524452
 30
0.0
  0
VERTEX
  5
125
  8
PRINT3
 10
267.9624579408226
 20
-123.0393551524452
 30
0.0
  0
VERTEX
  5
126
  8
PRINT3
 10
267.9624579408226
 20
-123.1359556298516
 30
0.0
  0
VERTEX
  5
127
  8
PRINT3
 10
268.0590239672742
 20
-123.1359556298516
 30
0.0
  0
VERTEX
  5
128
  8
PRINT3
 10
268.0590239672742
 20
-123.2377237504859
 30
0.0
  0
VERTEX
  5
129
  8
PRINT3
 10
267.9624579408226
 20
-123.2377237504859
 30
0.0
  0
VERTEX
  5
12A
  8
PRINT3
 10
267.9624579408226
 20
-123.3342553259826
 30
0.0
  0
VERTEX
  5
12B
  8
PRINT3
 10
267.6675922182401
 20
-123.3342553259826
 30
0.0
  0
SEQEND
  5
12C
  8
PRINT3
  0
POLYLINE
  5
12D
  8
PRINT3
 66
     1
 10
0.0
 20
0.0
 30
0.0
 70
     1
  0
VERTEX
  5
12E
  8
PRINT3
 10
266.9967287743974
 20
-123.2324872053483
 30
0.0
  0
VERTEX
  5
12F
  8
PRINT3
 10
267.0932948008489
 20
-123.2324872053483
 30
0.0
  0
VERTEX
  5
130
  8
PRINT3
 10
267.0932948008489
 20
-122.9471643972599
 30
0.0
  0
VERTEX
  5
131
  8
PRINT3
 10
266.9967287743974
 20
-122.9471643972599
 30
0.0
  0
VERTEX
  5
132
  8
PRINT3
 10
266.9967287743974
 20
-122.8462920014518
 30
0.0
  0
VERTEX
  5
133
  8
PRINT3
 10
267.1950629214832
 20
-122.8462920014518
 30
0.0
  0
VERTEX
  5
134
  8
PRINT3
 10
267.1950629214832
 20
-122.9428235769485
 30
0.0
  0
VERTEX
  5
135
  8
PRINT3
 10
267.2872881276234
 20
-122.9428235769485
 30
0.0
  0
VERTEX
  5
136
  8
PRINT3
 10
267.2872881276234
 20
-122.8462920014518
 30
0.0
  0
VERTEX
  5
137
  8
PRINT3
 10
267.484726549883
 20
-122.8462920014518
 30
0.0
  0
VERTEX
  5
138
  8
PRINT3
 10
267.484726549883
 20
-122.9471643972599
 30
0.0
  0
VERTEX
  5
139
  8
PRINT3
 10
267.2916289479348
 20
-122.9471643972599
 30
0.0
  0
VERTEX
  5
13A
  8
PRINT3
 10
267.2916289479348
 20
-123.0436959727566
 30
0.0
  0
VERTEX
  5
13B
  8
PRINT3
 10
267.1950629214832
 20
-123.0436959727566
 30
0.0
  0
VERTEX
  5
13C
  8
PRINT3
 10
267.1950629214832
 20
-123.2324872053483
 30
0.0
  0
VERTEX
  5
13D
  8
PRINT3
 10
267.3881949743864
 20
-123.2324872053483
 30
0.0
  0
VERTEX
  5
13E
  8
PRINT3
 10
267.3881949743864
 20
-123.3342553259826
 30
0.0
  0
VERTEX
  5
13F
  8
PRINT3
 10
266.9967287743974
 20
-123.3342553259826
 30
0.0
  0
SEQEND
  5
140
  8
PRINT3
  0
POLYLINE
  5
141
  8
PRINT3
 66
     1
 10
0.0
 20
0.0
 30
0.0
 70
     1
  0
VERTEX
  5
142
  8
PRINT3
 10
266.7129562592773
 20
-122.9471643972599
 30
0.0
  0
VERTEX
  5
143
  8
PRINT3
 10
266.427633451189
 20
-122.9471643972599
 30
0.0
  0
VERTEX
  5
144
  8
PRINT3
 10
266.427633451189
 20
-123.0393551524452
 30
0.0
  0
VERTEX
  5
145
  8
PRINT3
 10
266.7129562592773
 20
-123.0393551524452
 30
0.0
  0
SEQEND
  5
146
  8
PRINT3
  0
POLYLINE
  5
147
  8
PRINT3
 66
     1
 10
0.0
 20
0.0
 30
0.0
 70
     1
  0
VERTEX
  5
148
  8
PRINT3
 10
266.3258653305547
 20
-122.9428235769485
 30
0.0
  0
VERTEX
  5
149
  8
PRINT3
 10
266.4224313570062
 20
-122.9428235769485
 30
0.0
  0
VERTEX
  5
14A
  8
PRINT3
 10
266.4224313570062
 20
-122.8462920014518
 30
0.0
  0
VERTEX
  5
14B
  8
PRINT3
 10
266.7173315305436
 20
-122.8462920014518
 30
0.0
  0
VERTEX
  5
14C
  8
PRINT3
 10
266.7173315305436
 20
-122.9428235769485
 30
0.0
  0
VERTEX
  5
14D
  8
PRINT3
 10
266.8138631060403
 20
-122.9428235769485
 30
0.0
  0
VERTEX
  5
14E
  8
PRINT3
 10
266.8138631060403
 20
-123.1411232730795
 30
0.0
  0
VERTEX
  5
14F
  8
PRINT3
 10
266.427633451189
 20
-123.1411232730795
 30
0.0
  0
VERTEX
  5
150
  8
PRINT3
 10
266.427633451189
 20
-123.2324872053483
 30
0.0
  0
VERTEX
  5
151
  8
PRINT3
 10
266.8138631060403
 20
-123.2324872053483
 30
0.0
  0
VERTEX
  5
152
  8
PRINT3
 10
266.8138631060403
 20
-123.3342553259826
 30
0.0
  0
VERTEX
  5
153
  8
PRINT3
 10
266.4224313570062
 20
-123.3342553259826
 30
0.0
  0
VERTEX
  5
154
  8
PRINT3
 10
266.4224313570062
 20
-123.2377237504859
 30
0.0
  0
VERTEX
  5
155
  8
PRINT3
 10
266.3258653305547
 20
-123.2377237504859
 30
0.0
  0
SEQEND
  5
156
  8
PRINT3
  0
POLYLINE
  5
157
  8
PRINT3
 66
     1
 10
0.0
 20
0.0
 30
0.0
 70
     1
  0
VERTEX
  5
158
  8
PRINT3
 10
265.4605606975245
 20
-123.2324872053483
 30
0.0
  0
VERTEX
  5
159
  8
PRINT3
 10
265.5571267239761
 20
-123.2324872053483
 30
0.0
  0
VERTEX
  5
15A
  8
PRINT3
 10
265.5571267239761
 20
-122.7540495698343
 30
0.0
  0
VERTEX
  5
15B
  8
PRINT3
 10
265.4605606975245
 20
-122.7540495698343
 30
0.0
  0
VERTEX
  5
15C
  8
PRINT3
 10
265.4605606975245
 20
-122.6522814492
 30
0.0
  0
VERTEX
  5
15D
  8
PRINT3
 10
265.6588948446103
 20
-122.6522814492
 30
0.0
  0
VERTEX
  5
15E
  8
PRINT3
 10
265.6588948446103
 20
-123.0393551524452
 30
0.0
  0
VERTEX
  5
15F
  8
PRINT3
 10
265.7511200507504
 20
-123.0393551524452
 30
0.0
  0
VERTEX
  5
160
  8
PRINT3
 10
265.7511200507504
 20
-122.9428235769485
 30
0.0
  0
VERTEX
  5
161
  8
PRINT3
 10
265.8476516262472
 20
-122.9428235769485
 30
0.0
  0
VERTEX
  5
162
  8
PRINT3
 10
265.8476516262472
 20
-122.8462920014518
 30
0.0
  0
VERTEX
  5
163
  8
PRINT3
 10
266.045985773333
 20
-122.8462920014518
 30
0.0
  0
VERTEX
  5
164
  8
PRINT3
 10
266.045985773333
 20
-122.9471643972599
 30
0.0
  0
VERTEX
  5
165
  8
PRINT3
 10
265.8520268975134
 20
-122.9471643972599
 30
0.0
  0
VERTEX
  5
166
  8
PRINT3
 10
265.8520268975134
 20
-123.0393551524452
 30
0.0
  0
VERTEX
  5
167
  8
PRINT3
 10
266.045985773333
 20
-123.0393551524452
 30
0.0
  0
VERTEX
  5
168
  8
PRINT3
 10
266.045985773333
 20
-123.2324872053483
 30
0.0
  0
VERTEX
  5
169
  8
PRINT3
 10
266.1425517997845
 20
-123.2324872053483
 30
0.0
  0
VERTEX
  5
16A
  8
PRINT3
 10
266.1425517997845
 20
-123.3342553259826
 30
0.0
  0
VERTEX
  5
16B
  8
PRINT3
 10
265.9442176526987
 20
-123.3342553259826
 30
0.0
  0
VERTEX
  5
16C
  8
PRINT3
 10
265.9442176526987
 20
-123.1411232730795
 30
0.0
  0
VERTEX
  5
16D
  8
PRINT3
 10
265.6588948446103
 20
-123.1411232730795
 30
0.0
  0
VERTEX
  5
16E
  8
PRINT3
 10
265.6588948446103
 20
-123.3342553259826
 30
0.0
  0
VERTEX
  5
16F
  8
PRINT3
 10
265.4605606975245
 20
-123.3342553259826
 30
0.0
  0
SEQEND
  5
170
  8
PRINT3
  0
POLYLINE
  5
171
  8
PRINT3
 66
     1
 10
0.0
 20
0.0
 30
0.0
 70
     1
  0
VERTEX
  5
172
  8
PRINT3
 10
264.8867111425464
 20
-122.9428235769485
 30
0.0
  0
VERTEX
  5
173
  8
PRINT3
 10
264.983277168998
 20
-122.9428235769485
 30
0.0
  0
VERTEX
  5
174
  8
PRINT3
 10
264.983277168998
 20
-122.8462920014518
 30
0.0
  0
VERTEX
  5
175
  8
PRINT3
 10
265.2781773425353
 20
-122.8462920014518
 30
0.0
  0
VERTEX
  5
176
  8
PRINT3
 10
265.2781773425353
 20
-123.0436959727566
 30
0.0
  0
VERTEX
  5
177
  8
PRINT3
 10
265.1772704957724
 20
-123.0436959727566
 30
0.0
  0
VERTEX
  5
178
  8
PRINT3
 10
265.1772704957724
 20
-122.9471643972599
 30
0.0
  0
VERTEX
  5
179
  8
PRINT3
 10
264.9884792631807
 20
-122.9471643972599
 30
0.0
  0
VERTEX
  5
17A
  8
PRINT3
 10
264.9884792631807
 20
-123.2324872053483
 30
0.0
  0
VERTEX
  5
17B
  8
PRINT3
 10
265.2781773425353
 20
-123.2324872053483
 30
0.0
  0
VERTEX
  5
17C
  8
PRINT3
 10
265.2781773425353
 20
-123.3342553259826
 30
0.0
  0
VERTEX
  5
17D
  8
PRINT3
 10
264.983277168998
 20
-123.3342553259826
 30
0.0
  0
VERTEX
  5
17E
  8
PRINT3
 10
264.983277168998
 20
-123.2377237504859
 30
0.0
  0
VERTEX
  5
17F
  8
PRINT3
 10
264.8867111425464
 20
-123.2377237504859
 30
0.0
  0
SEQEND
  5
180
  8
PRINT3
  0
POLYLINE
  5
181
  8
PRINT3
 66
     1
 10
0.0
 20
0.0
 30
0.0
 70
     1
  0
VERTEX
  5
182
  8
PRINT3
 10
264.3176502702929
 20
-123.1411232730795
 30
0.0
  0
VERTEX
  5
183
  8
PRINT3
 10
264.3176502702929
 20
-123.2324872053483
 30
0.0
  0
VERTEX
  5
184
  8
PRINT3
 10
264.5064070519297
 20
-123.2324872053483
 30
0.0
  0
VERTEX
  5
185
  8
PRINT3
 10
264.5064070519297
 20
-123.1411232730795
 30
0.0
  0
SEQEND
  5
186
  8
PRINT3
  0
POLYLINE
  5
187
  8
PRINT3
 66
     1
 10
0.0
 20
0.0
 30
0.0
 70
     1
  0
VERTEX
  5
188
  8
PRINT3
 10
264.2158821496586
 20
-123.0393551524452
 30
0.0
  0
VERTEX
  5
189
  8
PRINT3
 10
264.5064070519297
 20
-123.0393551524452
 30
0.0
  0
VERTEX
  5
18A
  8
PRINT3
 10
264.5064070519297
 20
-122.9471643972599
 30
0.0
  0
VERTEX
  5
18B
  8
PRINT3
 10
264.2158821496586
 20
-122.9471643972599
 30
0.0
  0
VERTEX
  5
18C
  8
PRINT3
 10
264.2158821496586
 20
-122.8462920014518
 30
0.0
  0
VERTEX
  5
18D
  8
PRINT3
 10
264.5107478722411
 20
-122.8462920014518
 30
0.0
  0
VERTEX
  5
18E
  8
PRINT3
 10
264.5107478722411
 20
-122.9428235769485
 30
0.0
  0
VERTEX
  5
18F
  8
PRINT3
 10
264.6073138986927
 20
-122.9428235769485
 30
0.0
  0
VERTEX
  5
190
  8
PRINT3
 10
264.6073138986927
 20
-123.2324872053483
 30
0.0
  0
VERTEX
  5
191
  8
PRINT3
 10
264.7038799251442
 20
-123.2324872053483
 30
0.0
  0
VERTEX
  5
192
  8
PRINT3
 10
264.7038799251442
 20
-123.3342553259826
 30
0.0
  0
VERTEX
  5
193
  8
PRINT3
 10
264.6029730783812
 20
-123.3342553259826
 30
0.0
  0
VERTEX
  5
194
  8
PRINT3
 10
264.6029730783812
 20
-123.2377237504859
 30
0.0
  0
VERTEX
  5
195
  8
PRINT3
 10
264.5107478722411
 20
-123.2377237504859
 30
0.0
  0
VERTEX
  5
196
  8
PRINT3
 10
264.5107478722411
 20
-123.3342553259826
 30
0.0
  0
VERTEX
  5
197
  8
PRINT3
 10
264.3124137251553
 20
-123.3342553259826
 30
0.0
  0
VERTEX
  5
198
  8
PRINT3
 10
264.3124137251553
 20
-123.2377237504859
 30
0.0
  0
VERTEX
  5
199
  8
PRINT3
 10
264.2158821496586
 20
-123.2377237504859
 30
0.0
  0
SEQEND
  5
19A
  8
PRINT3
  0
POLYLINE
  5
19B
  8
PRINT3
 66
     1
 10
0.0
 20
0.0
 30
0.0
 70
     1
  0
VERTEX
  5
19C
  8
PRINT3
 10
263.3505775166284
 20
-123.2324872053483
 30
0.0
  0
VERTEX
  5
19D
  8
PRINT3
 10
263.4471090921251
 20
-123.2324872053483
 30
0.0
  0
VERTEX
  5
19E
  8
PRINT3
 10
263.4471090921251
 20
-122.7540495698343
 30
0.0
  0
VERTEX
  5
19F
  8
PRINT3
 10
263.3505775166284
 20
-122.7540495698343
 30
0.0
  0
VERTEX
  5
1A0
  8
PRINT3
 10
263.3505775166284
 20
-122.6522814492
 30
0.0
  0
VERTEX
  5
1A1
  8
PRINT3
 10
263.5489116637142
 20
-122.6522814492
 30
0.0
  0
VERTEX
  5
1A2
  8
PRINT3
 10
263.5489116637142
 20
-122.9428235769485
 30
0.0
  0
VERTEX
  5
1A3
  8
PRINT3
 10
263.8342344718026
 20
-122.9428235769485
 30
0.0
  0
VERTEX
  5
1A4
  8
PRINT3
 10
263.8342344718026
 20
-122.6522814492
 30
0.0
  0
VERTEX
  5
1A5
  8
PRINT3
 10
264.0325686188884
 20
-122.6522814492
 30
0.0
  0
VERTEX
  5
1A6
  8
PRINT3
 10
264.0325686188884
 20
-122.7540495698343
 30
0.0
  0
VERTEX
  5
1A7
  8
PRINT3
 10
263.9360025924369
 20
-122.7540495698343
 30
0.0
  0
VERTEX
  5
1A8
  8
PRINT3
 10
263.9360025924369
 20
-123.2324872053483
 30
0.0
  0
VERTEX
  5
1A9
  8
PRINT3
 10
264.0325686188884
 20
-123.2324872053483
 30
0.0
  0
VERTEX
  5
1AA
  8
PRINT3
 10
264.0325686188884
 20
-123.3342553259826
 30
0.0
  0
VERTEX
  5
1AB
  8
PRINT3
 10
263.8342344718026
 20
-123.3342553259826
 30
0.0
  0
VERTEX
  5
1AC
  8
PRINT3
 10
263.8342344718026
 20
-123.0436959727566
 30
0.0
  0
VERTEX
  5
1AD
  8
PRINT3
 10
263.5489116637142
 20
-123.0436959727566
 30
0.0
  0
VERTEX
  5
1AE
  8
PRINT3
 10
263.5489116637142
 20
-123.3342553259826
 30
0.0
  0
VERTEX
  5
1AF
  8
PRINT3
 10
263.3505775166284
 20
-123.3342553259826
 30
0.0
  0
SEQEND
  5
1B0
  8
PRINT3
  0
POLYLINE
  5
1B1
  8
PRINT3
 66
     1
 10
0.0
 20
0.0
 30
0.0
 70
     1
  0
VERTEX
  5
1B2
  8
PRINT3
 10
270.6468763429293
 20
-131.2978002458667
 30
0.0
  0
VERTEX
  5
1B3
  8
PRINT3
 10
270.3615535348409
 20
-131.2978002458667
 30
0.0
  0
VERTEX
  5
1B4
  8
PRINT3
 10
270.3615535348409
 20
-131.3900254520069
 30
0.0
  0
VERTEX
  5
1B5
  8
PRINT3
 10
270.6468763429293
 20
-131.3900254520069
 30
0.0
  0
SEQEND
  5
1B6
  8
PRINT3
  0
POLYLINE
  5
1B7
  8
PRINT3
 66
     1
 10
0.0
 20
0.0
 30
0.0
 70
     1
  0
VERTEX
  5
1B8
  8
PRINT3
 10
270.2597854142066
 20
-131.2934594255553
 30
0.0
  0
VERTEX
  5
1B9
  8
PRINT3
 10
270.3563169897033
 20
-131.2934594255553
 30
0.0
  0
VERTEX
  5
1BA
  8
PRINT3
 10
270.3563169897033
 20
-131.1969278500586
 30
0.0
  0
VERTEX
  5
1BB
  8
PRINT3
 10
270.6512171632407
 20
-131.1969278500586
 30
0.0
  0
VERTEX
  5
1BC
  8
PRINT3
 10
270.6512171632407
 20
-131.2934594255553
 30
0.0
  0
VERTEX
  5
1BD
  8
PRINT3
 10
270.7477831896923
 20
-131.2934594255553
 30
0.0
  0
VERTEX
  5
1BE
  8
PRINT3
 10
270.7477831896923
 20
-131.4917935726411
 30
0.0
  0
VERTEX
  5
1BF
  8
PRINT3
 10
270.3615535348409
 20
-131.4917935726411
 30
0.0
  0
VERTEX
  5
1C0
  8
PRINT3
 10
270.3615535348409
 20
-131.5831230539551
 30
0.0
  0
VERTEX
  5
1C1
  8
PRINT3
 10
270.7477831896923
 20
-131.5831230539551
 30
0.0
  0
VERTEX
  5
1C2
  8
PRINT3
 10
270.7477831896923
 20
-131.6849256255442
 30
0.0
  0
VERTEX
  5
1C3
  8
PRINT3
 10
270.3563169897033
 20
-131.6849256255442
 30
0.0
  0
VERTEX
  5
1C4
  8
PRINT3
 10
270.3563169897033
 20
-131.5883595990927
 30
0.0
  0
VERTEX
  5
1C5
  8
PRINT3
 10
270.2597854142066
 20
-131.5883595990927
 30
0.0
  0
SEQEND
  5
1C6
  8
PRINT3
  0
POLYLINE
  5
1C7
  8
PRINT3
 66
     1
 10
0.0
 20
0.0
 30
0.0
 70
     1
  0
VERTEX
  5
1C8
  8
PRINT3
 10
269.6859358592286
 20
-131.2934594255553
 30
0.0
  0
VERTEX
  5
1C9
  8
PRINT3
 10
269.7824674347253
 20
-131.2934594255553
 30
0.0
  0
VERTEX
  5
1CA
  8
PRINT3
 10
269.7824674347253
 20
-131.1969278500586
 30
0.0
  0
VERTEX
  5
1CB
  8
PRINT3
 10
270.0773676082626
 20
-131.1969278500586
 30
0.0
  0
VERTEX
  5
1CC
  8
PRINT3
 10
270.0773676082626
 20
-131.3943662723183
 30
0.0
  0
VERTEX
  5
1CD
  8
PRINT3
 10
269.9764607614997
 20
-131.3943662723183
 30
0.0
  0
VERTEX
  5
1CE
  8
PRINT3
 10
269.9764607614997
 20
-131.2978002458667
 30
0.0
  0
VERTEX
  5
1CF
  8
PRINT3
 10
269.7877039798628
 20
-131.2978002458667
 30
0.0
  0
VERTEX
  5
1D0
  8
PRINT3
 10
269.7877039798628
 20
-131.5831230539551
 30
0.0
  0
VERTEX
  5
1D1
  8
PRINT3
 10
270.0773676082626
 20
-131.5831230539551
 30
0.0
  0
VERTEX
  5
1D2
  8
PRINT3
 10
270.0773676082626
 20
-131.6849256255442
 30
0.0
  0
VERTEX
  5
1D3
  8
PRINT3
 10
269.7824674347253
 20
-131.6849256255442
 30
0.0
  0
VERTEX
  5
1D4
  8
PRINT3
 10
269.7824674347253
 20
-131.5883595990927
 30
0.0
  0
VERTEX
  5
1D5
  8
PRINT3
 10
269.6859358592286
 20
-131.5883595990927
 30
0.0
  0
SEQEND
  5
1D6
  8
PRINT3
  0
POLYLINE
  5
1D7
  8
PRINT3
 66
     1
 10
0.0
 20
0.0
 30
0.0
 70
     1
  0
VERTEX
  5
1D8
  8
PRINT3
 10
269.0150724153859
 20
-131.5831230539551
 30
0.0
  0
VERTEX
  5
1D9
  8
PRINT3
 10
269.1116384418374
 20
-131.5831230539551
 30
0.0
  0
VERTEX
  5
1DA
  8
PRINT3
 10
269.1116384418374
 20
-131.2978002458667
 30
0.0
  0
VERTEX
  5
1DB
  8
PRINT3
 10
269.0150724153859
 20
-131.2978002458667
 30
0.0
  0
VERTEX
  5
1DC
  8
PRINT3
 10
269.0150724153859
 20
-131.1969278500586
 30
0.0
  0
VERTEX
  5
1DD
  8
PRINT3
 10
269.2134065624717
 20
-131.1969278500586
 30
0.0
  0
VERTEX
  5
1DE
  8
PRINT3
 10
269.2134065624717
 20
-131.2934594255553
 30
0.0
  0
VERTEX
  5
1DF
  8
PRINT3
 10
269.3056317686118
 20
-131.2934594255553
 30
0.0
  0
VERTEX
  5
1E0
  8
PRINT3
 10
269.3056317686118
 20
-131.1969278500586
 30
0.0
  0
VERTEX
  5
1E1
  8
PRINT3
 10
269.5030701908715
 20
-131.1969278500586
 30
0.0
  0
VERTEX
  5
1E2
  8
PRINT3
 10
269.5030701908715
 20
-131.2978002458667
 30
0.0
  0
VERTEX
  5
1E3
  8
PRINT3
 10
269.3099725889232
 20
-131.2978002458667
 30
0.0
  0
VERTEX
  5
1E4
  8
PRINT3
 10
269.3099725889232
 20
-131.3943662723183
 30
0.0
  0
VERTEX
  5
1E5
  8
PRINT3
 10
269.2134065624717
 20
-131.3943662723183
 30
0.0
  0
VERTEX
  5
1E6
  8
PRINT3
 10
269.2134065624717
 20
-131.5831230539551
 30
0.0
  0
VERTEX
  5
1E7
  8
PRINT3
 10
269.4065386153748
 20
-131.5831230539551
 30
0.0
  0
VERTEX
  5
1E8
  8
PRINT3
 10
269.4065386153748
 20
-131.6849256255442
 30
0.0
  0
VERTEX
  5
1E9
  8
PRINT3
 10
269.0150724153859
 20
-131.6849256255442
 30
0.0
  0
SEQEND
  5
1EA
  8
PRINT3
  0
POLYLINE
  5
1EB
  8
PRINT3
 66
     1
 10
0.0
 20
0.0
 30
0.0
 70
     1
  0
VERTEX
  5
1EC
  8
PRINT3
 10
268.2463338088072
 20
-131.2978002458667
 30
0.0
  0
VERTEX
  5
1ED
  8
PRINT3
 10
268.1497677823556
 20
-131.2978002458667
 30
0.0
  0
VERTEX
  5
1EE
  8
PRINT3
 10
268.1497677823556
 20
-131.1969278500586
 30
0.0
  0
VERTEX
  5
1EF
  8
PRINT3
 10
268.3481019294415
 20
-131.1969278500586
 30
0.0
  0
VERTEX
  5
1F0
  8
PRINT3
 10
268.3481019294415
 20
-131.5831230539551
 30
0.0
  0
VERTEX
  5
1F1
  8
PRINT3
 10
268.5368587110783
 20
-131.5831230539551
 30
0.0
  0
VERTEX
  5
1F2
  8
PRINT3
 10
268.5368587110783
 20
-131.4865914784584
 30
0.0
  0
VERTEX
  5
1F3
  8
PRINT3
 10
268.6334247375299
 20
-131.4865914784584
 30
0.0
  0
VERTEX
  5
1F4
  8
PRINT3
 10
268.6334247375299
 20
-131.1969278500586
 30
0.0
  0
VERTEX
  5
1F5
  8
PRINT3
 10
268.7351928581642
 20
-131.1969278500586
 30
0.0
  0
VERTEX
  5
1F6
  8
PRINT3
 10
268.7351928581642
 20
-131.5831230539551
 30
0.0
  0
VERTEX
  5
1F7
  8
PRINT3
 10
268.8317588846157
 20
-131.5831230539551
 30
0.0
  0
VERTEX
  5
1F8
  8
PRINT3
 10
268.8317588846157
 20
-131.6849256255442
 30
0.0
  0
VERTEX
  5
1F9
  8
PRINT3
 10
268.6334247375299
 20
-131.6849256255442
 30
0.0
  0
VERTEX
  5
1FA
  8
PRINT3
 10
268.6334247375299
 20
-131.5883595990927
 30
0.0
  0
VERTEX
  5
1FB
  8
PRINT3
 10
268.5412339823446
 20
-131.5883595990927
 30
0.0
  0
VERTEX
  5
1FC
  8
PRINT3
 10
268.5412339823446
 20
-131.6849256255442
 30
0.0
  0
VERTEX
  5
1FD
  8
PRINT3
 10
268.3437611091301
 20
-131.6849256255442
 30
0.0
  0
VERTEX
  5
1FE
  8
PRINT3
 10
268.3437611091301
 20
-131.5883595990927
 30
0.0
  0
VERTEX
  5
1FF
  8
PRINT3
 10
268.2463338088072
 20
-131.5883595990927
 30
0.0
  0
SEQEND
  5
200
  8
PRINT3
  0
POLYLINE
  5
201
  8
PRINT3
 66
     1
 10
0.0
 20
0.0
 30
0.0
 70
     1
  0
VERTEX
  5
202
  8
PRINT3
 10
267.5806724591473
 20
-131.2978002458667
 30
0.0
  0
VERTEX
  5
203
  8
PRINT3
 10
267.5806724591473
 20
-131.5831230539551
 30
0.0
  0
VERTEX
  5
204
  8
PRINT3
 10
267.8659952672356
 20
-131.5831230539551
 30
0.0
  0
VERTEX
  5
205
  8
PRINT3
 10
267.8659952672356
 20
-131.2978002458667
 30
0.0
  0
SEQEND
  5
206
  8
PRINT3
  0
POLYLINE
  5
207
  8
PRINT3
 66
     1
 10
0.0
 20
0.0
 30
0.0
 70
     1
  0
VERTEX
  5
208
  8
PRINT3
 10
267.478904338513
 20
-131.2934594255553
 30
0.0
  0
VERTEX
  5
209
  8
PRINT3
 10
267.5754703649645
 20
-131.2934594255553
 30
0.0
  0
VERTEX
  5
20A
  8
PRINT3
 10
267.5754703649645
 20
-131.1969278500586
 30
0.0
  0
VERTEX
  5
20B
  8
PRINT3
 10
267.8703705385019
 20
-131.1969278500586
 30
0.0
  0
VERTEX
  5
20C
  8
PRINT3
 10
267.8703705385019
 20
-131.2934594255553
 30
0.0
  0
VERTEX
  5
20D
  8
PRINT3
 10
267.9669021139986
 20
-131.2934594255553
 30
0.0
  0
VERTEX
  5
20E
  8
PRINT3
 10
267.9669021139986
 20
-131.5883595990927
 30
0.0
  0
VERTEX
  5
20F
  8
PRINT3
 10
267.8703705385019
 20
-131.5883595990927
 30
0.0
  0
VERTEX
  5
210
  8
PRINT3
 10
267.8703705385019
 20
-131.6849256255442
 30
0.0
  0
VERTEX
  5
211
  8
PRINT3
 10
267.5754703649645
 20
-131.6849256255442
 30
0.0
  0
VERTEX
  5
212
  8
PRINT3
 10
267.5754703649645
 20
-131.5883595990927
 30
0.0
  0
VERTEX
  5
213
  8
PRINT3
 10
267.478904338513
 20
-131.5883595990927
 30
0.0
  0
SEQEND
  5
214
  8
PRINT3
  0
POLYLINE
  5
215
  8
PRINT3
 66
     1
 10
0.0
 20
0.0
 30
0.0
 70
     1
  0
VERTEX
  5
216
  8
PRINT3
 10
266.8080753456251
 20
-131.4865914784584
 30
0.0
  0
VERTEX
  5
217
  8
PRINT3
 10
266.9098434662594
 20
-131.4865914784584
 30
0.0
  0
VERTEX
  5
218
  8
PRINT3
 10
266.9098434662594
 20
-131.5831230539551
 30
0.0
  0
VERTEX
  5
219
  8
PRINT3
 10
267.1951662743478
 20
-131.5831230539551
 30
0.0
  0
VERTEX
  5
21A
  8
PRINT3
 10
267.1951662743478
 20
-131.3943662723183
 30
0.0
  0
VERTEX
  5
21B
  8
PRINT3
 10
267.0020342214447
 20
-131.3943662723183
 30
0.0
  0
VERTEX
  5
21C
  8
PRINT3
 10
267.0020342214447
 20
-131.2978002458667
 30
0.0
  0
VERTEX
  5
21D
  8
PRINT3
 10
266.9046069211218
 20
-131.2978002458667
 30
0.0
  0
VERTEX
  5
21E
  8
PRINT3
 10
266.9046069211218
 20
-131.20126867037
 30
0.0
  0
VERTEX
  5
21F
  8
PRINT3
 10
266.8080753456251
 20
-131.20126867037
 30
0.0
  0
VERTEX
  5
220
  8
PRINT3
 10
266.8080753456251
 20
-131.0029345232842
 30
0.0
  0
VERTEX
  5
221
  8
PRINT3
 10
267.2960731211107
 20
-131.0029345232842
 30
0.0
  0
VERTEX
  5
222
  8
PRINT3
 10
267.2960731211107
 20
-131.20126867037
 30
0.0
  0
VERTEX
  5
223
  8
PRINT3
 10
267.1951662743478
 20
-131.20126867037
 30
0.0
  0
VERTEX
  5
224
  8
PRINT3
 10
267.1951662743478
 20
-131.1047026439184
 30
0.0
  0
VERTEX
  5
225
  8
PRINT3
 10
266.9098434662594
 20
-131.1047026439184
 30
0.0
  0
VERTEX
  5
226
  8
PRINT3
 10
266.9098434662594
 20
-131.1969278500586
 30
0.0
  0
VERTEX
  5
227
  8
PRINT3
 10
267.0064094927109
 20
-131.1969278500586
 30
0.0
  0
VERTEX
  5
228
  8
PRINT3
 10
267.0064094927109
 20
-131.2934594255553
 30
0.0
  0
VERTEX
  5
229
  8
PRINT3
 10
267.1995070946592
 20
-131.2934594255553
 30
0.0
  0
VERTEX
  5
22A
  8
PRINT3
 10
267.1995070946592
 20
-131.3900254520069
 30
0.0
  0
VERTEX
  5
22B
  8
PRINT3
 10
267.2960731211107
 20
-131.3900254520069
 30
0.0
  0
VERTEX
  5
22C
  8
PRINT3
 10
267.2960731211107
 20
-131.6849256255442
 30
0.0
  0
VERTEX
  5
22D
  8
PRINT3
 10
266.8080753456251
 20
-131.6849256255442
 30
0.0
  0
SEQEND
  5
22E
  8
PRINT3
  0
POLYLINE
  5
22F
  8
PRINT3
 66
     1
 10
0.0
 20
0.0
 30
0.0
 70
     1
  0
VERTEX
  5
230
  8
PRINT3
 10
265.4552207995224
 20
-131.5831230539551
 30
0.0
  0
VERTEX
  5
231
  8
PRINT3
 10
265.5517523750191
 20
-131.5831230539551
 30
0.0
  0
VERTEX
  5
232
  8
PRINT3
 10
265.5517523750191
 20
-131.2978002458667
 30
0.0
  0
VERTEX
  5
233
  8
PRINT3
 10
265.4552207995224
 20
-131.2978002458667
 30
0.0
  0
VERTEX
  5
234
  8
PRINT3
 10
265.4552207995224
 20
-131.1969278500586
 30
0.0
  0
VERTEX
  5
235
  8
PRINT3
 10
265.6535549466082
 20
-131.1969278500586
 30
0.0
  0
VERTEX
  5
236
  8
PRINT3
 10
265.6535549466082
 20
-131.2934594255553
 30
0.0
  0
VERTEX
  5
237
  8
PRINT3
 10
265.7457457017935
 20
-131.2934594255553
 30
0.0
  0
VERTEX
  5
238
  8
PRINT3
 10
265.7457457017935
 20
-131.1969278500586
 30
0.0
  0
VERTEX
  5
239
  8
PRINT3
 10
265.943218575008
 20
-131.1969278500586
 30
0.0
  0
VERTEX
  5
23A
  8
PRINT3
 10
265.943218575008
 20
-131.2934594255553
 30
0.0
  0
VERTEX
  5
23B
  8
PRINT3
 10
266.0406458753309
 20
-131.2934594255553
 30
0.0
  0
VERTEX
  5
23C
  8
PRINT3
 10
266.0406458753309
 20
-131.5831230539551
 30
0.0
  0
VERTEX
  5
23D
  8
PRINT3
 10
266.1372119017824
 20
-131.5831230539551
 30
0.0
  0
VERTEX
  5
23E
  8
PRINT3
 10
266.1372119017824
 20
-131.6849256255442
 30
0.0
  0
VERTEX
  5
23F
  8
PRINT3
 10
265.9388777546966
 20
-131.6849256255442
 30
0.0
  0
VERTEX
  5
240
  8
PRINT3
 10
265.9388777546966
 20
-131.2978002458667
 30
0.0
  0
VERTEX
  5
241
  8
PRINT3
 10
265.7500865221049
 20
-131.2978002458667
 30
0.0
  0
VERTEX
  5
242
  8
PRINT3
 10
265.7500865221049
 20
-131.3943662723183
 30
0.0
  0
VERTEX
  5
243
  8
PRINT3
 10
265.6535549466082
 20
-131.3943662723183
 30
0.0
  0
VERTEX
  5
244
  8
PRINT3
 10
265.6535549466082
 20
-131.6849256255442
 30
0.0
  0
VERTEX
  5
245
  8
PRINT3
 10
265.4552207995224
 20
-131.6849256255442
 30
0.0
  0
SEQEND
  5
246
  8
PRINT3
  0
POLYLINE
  5
247
  8
PRINT3
 66
     1
 10
0.0
 20
0.0
 30
0.0
 70
     1
  0
VERTEX
  5
248
  8
PRINT3
 10
265.1714482844023
 20
-131.2978002458667
 30
0.0
  0
VERTEX
  5
249
  8
PRINT3
 10
264.8861254763139
 20
-131.2978002458667
 30
0.0
  0
VERTEX
  5
24A
  8
PRINT3
 10
264.8861254763139
 20
-131.3900254520069
 30
0.0
  0
VERTEX
  5
24B
  8
PRINT3
 10
265.1714482844023
 20
-131.3900254520069
 30
0.0
  0
SEQEND
  5
24C
  8
PRINT3
  0
POLYLINE
  5
24D
  8
PRINT3
 66
     1
 10
0.0
 20
0.0
 30
0.0
 70
     1
  0
VERTEX
  5
24E
  8
PRINT3
 10
264.7843573556797
 20
-131.2934594255553
 30
0.0
  0
VERTEX
  5
24F
  8
PRINT3
 10
264.8809233821312
 20
-131.2934594255553
 30
0.0
  0
VERTEX
  5
250
  8
PRINT3
 10
264.8809233821312
 20
-131.1969278500586
 30
0.0
  0
VERTEX
  5
251
  8
PRINT3
 10
265.1758235556686
 20
-131.1969278500586
 30
0.0
  0
VERTEX
  5
252
  8
PRINT3
 10
265.1758235556686
 20
-131.2934594255553
 30
0.0
  0
VERTEX
  5
253
  8
PRINT3
 10
265.2723551311653
 20
-131.2934594255553
 30
0.0
  0
VERTEX
  5
254
  8
PRINT3
 10
265.2723551311653
 20
-131.4917935726411
 30
0.0
  0
VERTEX
  5
255
  8
PRINT3
 10
264.8861254763139
 20
-131.4917935726411
 30
0.0
  0
VERTEX
  5
256
  8
PRINT3
 10
264.8861254763139
 20
-131.5831230539551
 30
0.0
  0
VERTEX
  5
257
  8
PRINT3
 10
265.2723551311653
 20
-131.5831230539551
 30
0.0
  0
VERTEX
  5
258
  8
PRINT3
 10
265.2723551311653
 20
-131.6849256255442
 30
0.0
  0
VERTEX
  5
259
  8
PRINT3
 10
264.8809233821312
 20
-131.6849256255442
 30
0.0
  0
VERTEX
  5
25A
  8
PRINT3
 10
264.8809233821312
 20
-131.5883595990927
 30
0.0
  0
VERTEX
  5
25B
  8
PRINT3
 10
264.7843573556797
 20
-131.5883595990927
 30
0.0
  0
SEQEND
  5
25C
  8
PRINT3
  0
POLYLINE
  5
25D
  8
PRINT3
 66
     1
 10
0.0
 20
0.0
 30
0.0
 70
     1
  0
VERTEX
  5
25E
  8
PRINT3
 10
264.2144007585999
 20
-131.3943662723183
 30
0.0
  0
VERTEX
  5
25F
  8
PRINT3
 10
264.2144007585999
 20
-131.5831230539551
 30
0.0
  0
VERTEX
  5
260
  8
PRINT3
 10
264.4997235666883
 20
-131.5831230539551
 30
0.0
  0
VERTEX
  5
261
  8
PRINT3
 10
264.4997235666883
 20
-131.2978002458667
 30
0.0
  0
VERTEX
  5
262
  8
PRINT3
 10
264.3109667850514
 20
-131.2978002458667
 30
0.0
  0
VERTEX
  5
263
  8
PRINT3
 10
264.3109667850514
 20
-131.3943662723183
 30
0.0
  0
SEQEND
  5
264
  8
PRINT3
  0
POLYLINE
  5
265
  8
PRINT3
 66
     1
 10
0.0
 20
0.0
 30
0.0
 70
     1
  0
VERTEX
  5
266
  8
PRINT3
 10
264.0160666115141
 20
-131.7762551068582
 30
0.0
  0
VERTEX
  5
267
  8
PRINT3
 10
264.1126326379656
 20
-131.7762551068582
 30
0.0
  0
VERTEX
  5
268
  8
PRINT3
 10
264.1126326379656
 20
-131.2978002458667
 30
0.0
  0
VERTEX
  5
269
  8
PRINT3
 10
264.0160666115141
 20
-131.2978002458667
 30
0.0
  0
VERTEX
  5
26A
  8
PRINT3
 10
264.0160666115141
 20
-131.1969278500586
 30
0.0
  0
VERTEX
  5
26B
  8
PRINT3
 10
264.2144007585999
 20
-131.1969278500586
 30
0.0
  0
VERTEX
  5
26C
  8
PRINT3
 10
264.2144007585999
 20
-131.2934594255553
 30
0.0
  0
VERTEX
  5
26D
  8
PRINT3
 10
264.3066259647401
 20
-131.2934594255553
 30
0.0
  0
VERTEX
  5
26E
  8
PRINT3
 10
264.3066259647401
 20
-131.1969278500586
 30
0.0
  0
VERTEX
  5
26F
  8
PRINT3
 10
264.5040643869997
 20
-131.1969278500586
 30
0.0
  0
VERTEX
  5
270
  8
PRINT3
 10
264.5040643869997
 20
-131.2934594255553
 30
0.0
  0
VERTEX
  5
271
  8
PRINT3
 10
264.6014916873226
 20
-131.2934594255553
 30
0.0
  0
VERTEX
  5
272
  8
PRINT3
 10
264.6014916873226
 20
-131.5883595990927
 30
0.0
  0
VERTEX
  5
273
  8
PRINT3
 10
264.5040643869997
 20
-131.5883595990927
 30
0.0
  0
VERTEX
  5
274
  8
PRINT3
 10
264.5040643869997
 20
-131.6849256255442
 30
0.0
  0
VERTEX
  5
275
  8
PRINT3
 10
264.2144007585999
 20
-131.6849256255442
 30
0.0
  0
VERTEX
  5
276
  8
PRINT3
 10
264.2144007585999
 20
-131.7762551068582
 30
0.0
  0
VERTEX
  5
277
  8
PRINT3
 10
264.3109667850514
 20
-131.7762551068582
 30
0.0
  0
VERTEX
  5
278
  8
PRINT3
 10
264.3109667850514
 20
-131.8780232274925
 30
0.0
  0
VERTEX
  5
279
  8
PRINT3
 10
264.0160666115141
 20
-131.8780232274925
 30
0.0
  0
SEQEND
  5
27A
  8
PRINT3
  0
POLYLINE
  5
27B
  8
PRINT3
 66
     1
 10
0.0
 20
0.0
 30
0.0
 70
     1
  0
VERTEX
  5
27C
  8
PRINT3
 10
263.4469712883057
 20
-131.1047026439184
 30
0.0
  0
VERTEX
  5
27D
  8
PRINT3
 10
263.4469712883057
 20
-131.5831230539551
 30
0.0
  0
VERTEX
  5
27E
  8
PRINT3
 10
263.7322940963941
 20
-131.5831230539551
 30
0.0
  0
VERTEX
  5
27F
  8
PRINT3
 10
263.7322940963941
 20
-131.1047026439184
 30
0.0
  0
SEQEND
  5
280
  8
PRINT3
  0
POLYLINE
  5
281
  8
PRINT3
 66
     1
 10
0.0
 20
0.0
 30
0.0
 70
     1
  0
VERTEX
  5
282
  8
PRINT3
 10
263.3452031676714
 20
-131.100361823607
 30
0.0
  0
VERTEX
  5
283
  8
PRINT3
 10
263.4417691941229
 20
-131.100361823607
 30
0.0
  0
VERTEX
  5
284
  8
PRINT3
 10
263.4417691941229
 20
-131.0029345232842
 30
0.0
  0
VERTEX
  5
285
  8
PRINT3
 10
263.7366693676603
 20
-131.0029345232842
 30
0.0
  0
VERTEX
  5
286
  8
PRINT3
 10
263.7366693676603
 20
-131.100361823607
 30
0.0
  0
VERTEX
  5
287
  8
PRINT3
 10
263.833200943157
 20
-131.100361823607
 30
0.0
  0
VERTEX
  5
288
  8
PRINT3
 10
263.833200943157
 20
-131.5883595990927
 30
0.0
  0
VERTEX
  5
289
  8
PRINT3
 10
263.7366693676603
 20
-131.5883595990927
 30
0.0
  0
VERTEX
  5
28A
  8
PRINT3
 10
263.7366693676603
 20
-131.6849256255442
 30
0.0
  0
VERTEX
  5
28B
  8
PRINT3
 10
263.4417691941229
 20
-131.6849256255442
 30
0.0
  0
VERTEX
  5
28C
  8
PRINT3
 10
263.4417691941229
 20
-131.5883595990927
 30
0.0
  0
VERTEX
  5
28D
  8
PRINT3
 10
263.3452031676714
 20
-131.5883595990927
 30
0.0
  0
SEQEND
  5
28E
  8
PRINT3
  0
POLYLINE
  5
28F
  8
PRINT3
 66
     1
 10
0.0
 20
0.0
 30
0.0
 70
     1
  0
VERTEX
  5
290
  8
PRINT3
 10
269.2313899609047
 20
-130.447791836791
 30
0.0
  0
VERTEX
  5
291
  8
PRINT3
 10
269.2313899609047
 20
-130.539121318105
 30
0.0
  0
VERTEX
  5
292
  8
PRINT3
 10
269.4201467425415
 20
-130.539121318105
 30
0.0
  0
VERTEX
  5
293
  8
PRINT3
 10
269.4201467425415
 20
-130.447791836791
 30
0.0
  0
SEQEND
  5
294
  8
PRINT3
  0
POLYLINE
  5
295
  8
PRINT3
 66
     1
 10
0.0
 20
0.0
 30
0.0
 70
     1
  0
VERTEX
  5
296
  8
PRINT3
 10
269.1296218402704
 20
-130.3460237161567
 30
0.0
  0
VERTEX
  5
297
  8
PRINT3
 10
269.4201467425415
 20
-130.3460237161567
 30
0.0
  0
VERTEX
  5
298
  8
PRINT3
 10
269.4201467425415
 20
-130.2537985100166
 30
0.0
  0
VERTEX
  5
299
  8
PRINT3
 10
269.1296218402704
 20
-130.2537985100166
 30
0.0
  0
VERTEX
  5
29A
  8
PRINT3
 10
269.1296218402704
 20
-130.1529261142085
 30
0.0
  0
VERTEX
  5
29B
  8
PRINT3
 10
269.424487562853
 20
-130.1529261142085
 30
0.0
  0
VERTEX
  5
29C
  8
PRINT3
 10
269.424487562853
 20
-130.2494576897052
 30
0.0
  0
VERTEX
  5
29D
  8
PRINT3
 10
269.5210535893045
 20
-130.2494576897052
 30
0.0
  0
VERTEX
  5
29E
  8
PRINT3
 10
269.5210535893045
 20
-130.539121318105
 30
0.0
  0
VERTEX
  5
29F
  8
PRINT3
 10
269.617619615756
 20
-130.539121318105
 30
0.0
  0
VERTEX
  5
2A0
  8
PRINT3
 10
269.617619615756
 20
-130.6409238896941
 30
0.0
  0
VERTEX
  5
2A1
  8
PRINT3
 10
269.5167127689931
 20
-130.6409238896941
 30
0.0
  0
VERTEX
  5
2A2
  8
PRINT3
 10
269.5167127689931
 20
-130.5443578632426
 30
0.0
  0
VERTEX
  5
2A3
  8
PRINT3
 10
269.424487562853
 20
-130.5443578632426
 30
0.0
  0
VERTEX
  5
2A4
  8
PRINT3
 10
269.424487562853
 20
-130.6409238896941
 30
0.0
  0
VERTEX
  5
2A5
  8
PRINT3
 10
269.2261534157671
 20
-130.6409238896941
 30
0.0
  0
VERTEX
  5
2A6
  8
PRINT3
 10
269.2261534157671
 20
-130.5443578632426
 30
0.0
  0
VERTEX
  5
2A7
  8
PRINT3
 10
269.1296218402704
 20
-130.5443578632426
 30
0.0
  0
SEQEND
  5
2A8
  8
PRINT3
  0
POLYLINE
  5
2A9
  8
PRINT3
 66
     1
 10
0.0
 20
0.0
 30
0.0
 70
     1
  0
VERTEX
  5
2AA
  8
PRINT3
 10
268.7488698872406
 20
-130.0607009080684
 30
0.0
  0
VERTEX
  5
2AB
  8
PRINT3
 10
268.6523383117439
 20
-130.0607009080684
 30
0.0
  0
VERTEX
  5
2AC
  8
PRINT3
 10
268.6523383117439
 20
-129.9589327874341
 30
0.0
  0
VERTEX
  5
2AD
  8
PRINT3
 10
268.8506724588298
 20
-129.9589327874341
 30
0.0
  0
VERTEX
  5
2AE
  8
PRINT3
 10
268.8506724588298
 20
-130.539121318105
 30
0.0
  0
VERTEX
  5
2AF
  8
PRINT3
 10
268.9472040343264
 20
-130.539121318105
 30
0.0
  0
VERTEX
  5
2B0
  8
PRINT3
 10
268.9472040343264
 20
-130.6409238896941
 30
0.0
  0
VERTEX
  5
2B1
  8
PRINT3
 10
268.7488698872406
 20
-130.6409238896941
 30
0.0
  0
SEQEND
  5
2B2
  8
PRINT3
  0
POLYLINE
  5
2B3
  8
PRINT3
 66
     1
 10
0.0
 20
0.0
 30
0.0
 70
     1
  0
VERTEX
  5
2B4
  8
PRINT3
 10
268.1323011482455
 20
-130.2537985100166
 30
0.0
  0
VERTEX
  5
2B5
  8
PRINT3
 10
268.1323011482455
 20
-130.539121318105
 30
0.0
  0
VERTEX
  5
2B6
  8
PRINT3
 10
268.4176239563338
 20
-130.539121318105
 30
0.0
  0
VERTEX
  5
2B7
  8
PRINT3
 10
268.4176239563338
 20
-130.2537985100166
 30
0.0
  0
SEQEND
  5
2B8
  8
PRINT3
  0
POLYLINE
  5
2B9
  8
PRINT3
 66
     1
 10
0.0
 20
0.0
 30
0.0
 70
     1
  0
VERTEX
  5
2BA
  8
PRINT3
 10
268.0305330276112
 20
-130.2494576897052
 30
0.0
  0
VERTEX
  5
2BB
  8
PRINT3
 10
268.1270990540627
 20
-130.2494576897052
 30
0.0
  0
VERTEX
  5
2BC
  8
PRINT3
 10
268.1270990540627
 20
-130.1529261142085
 30
0.0
  0
VERTEX
  5
2BD
  8
PRINT3
 10
268.4219992276001
 20
-130.1529261142085
 30
0.0
  0
VERTEX
  5
2BE
  8
PRINT3
 10
268.4219992276001
 20
-130.2494576897052
 30
0.0
  0
VERTEX
  5
2BF
  8
PRINT3
 10
268.5185308030968
 20
-130.2494576897052
 30
0.0
  0
VERTEX
  5
2C0
  8
PRINT3
 10
268.5185308030968
 20
-130.5443578632426
 30
0.0
  0
VERTEX
  5
2C1
  8
PRINT3
 10
268.4219992276001
 20
-130.5443578632426
 30
0.0
  0
VERTEX
  5
2C2
  8
PRINT3
 10
268.4219992276001
 20
-130.6409238896941
 30
0.0
  0
VERTEX
  5
2C3
  8
PRINT3
 10
268.1270990540627
 20
-130.6409238896941
 30
0.0
  0
VERTEX
  5
2C4
  8
PRINT3
 10
268.1270990540627
 20
-130.5443578632426
 30
0.0
  0
VERTEX
  5
2C5
  8
PRINT3
 10
268.0305330276112
 20
-130.5443578632426
 30
0.0
  0
SEQEND
  5
2C6
  8
PRINT3
  0
POLYLINE
  5
2C7
  8
PRINT3
 66
     1
 10
0.0
 20
0.0
 30
0.0
 70
     1
  0
VERTEX
  5
2C8
  8
PRINT3
 10
267.2617944210325
 20
-130.2537985100166
 30
0.0
  0
VERTEX
  5
2C9
  8
PRINT3
 10
267.1652283945809
 20
-130.2537985100166
 30
0.0
  0
VERTEX
  5
2CA
  8
PRINT3
 10
267.1652283945809
 20
-130.1529261142085
 30
0.0
  0
VERTEX
  5
2CB
  8
PRINT3
 10
267.3635625416668
 20
-130.1529261142085
 30
0.0
  0
VERTEX
  5
2CC
  8
PRINT3
 10
267.3635625416668
 20
-130.539121318105
 30
0.0
  0
VERTEX
  5
2CD
  8
PRINT3
 10
267.5523193233036
 20
-130.539121318105
 30
0.0
  0
VERTEX
  5
2CE
  8
PRINT3
 10
267.5523193233036
 20
-130.4425897426083
 30
0.0
  0
VERTEX
  5
2CF
  8
PRINT3
 10
267.6488853497552
 20
-130.4425897426083
 30
0.0
  0
VERTEX
  5
2D0
  8
PRINT3
 10
267.6488853497552
 20
-130.1529261142085
 30
0.0
  0
VERTEX
  5
2D1
  8
PRINT3
 10
267.7506534703895
 20
-130.1529261142085
 30
0.0
  0
VERTEX
  5
2D2
  8
PRINT3
 10
267.7506534703895
 20
-130.539121318105
 30
0.0
  0
VERTEX
  5
2D3
  8
PRINT3
 10
267.847219496841
 20
-130.539121318105
 30
0.0
  0
VERTEX
  5
2D4
  8
PRINT3
 10
267.847219496841
 20
-130.6409238896941
 30
0.0
  0
VERTEX
  5
2D5
  8
PRINT3
 10
267.6488853497552
 20
-130.6409238896941
 30
0.0
  0
VERTEX
  5
2D6
  8
PRINT3
 10
267.6488853497552
 20
-130.5443578632426
 30
0.0
  0
VERTEX
  5
2D7
  8
PRINT3
 10
267.5566945945699
 20
-130.5443578632426
 30
0.0
  0
VERTEX
  5
2D8
  8
PRINT3
 10
267.5566945945699
 20
-130.6409238896941
 30
0.0
  0
VERTEX
  5
2D9
  8
PRINT3
 10
267.3592217213554
 20
-130.6409238896941
 30
0.0
  0
VERTEX
  5
2DA
  8
PRINT3
 10
267.3592217213554
 20
-130.5443578632426
 30
0.0
  0
VERTEX
  5
2DB
  8
PRINT3
 10
267.2617944210325
 20
-130.5443578632426
 30
0.0
  0
SEQEND
  5
2DC
  8
PRINT3
  0
POLYLINE
  5
2DD
  8
PRINT3
 66
     1
 10
0.0
 20
0.0
 30
0.0
 70
     1
  0
VERTEX
  5
2DE
  8
PRINT3
 10
266.5914132905577
 20
-130.2494576897052
 30
0.0
  0
VERTEX
  5
2DF
  8
PRINT3
 10
266.6879448660545
 20
-130.2494576897052
 30
0.0
  0
VERTEX
  5
2E0
  8
PRINT3
 10
266.6879448660545
 20
-130.1529261142085
 30
0.0
  0
VERTEX
  5
2E1
  8
PRINT3
 10
266.9828450395918
 20
-130.1529261142085
 30
0.0
  0
VERTEX
  5
2E2
  8
PRINT3
 10
266.9828450395918
 20
-130.3503645364682
 30
0.0
  0
VERTEX
  5
2E3
  8
PRINT3
 10
266.8819381928288
 20
-130.3503645364682
 30
0.0
  0
VERTEX
  5
2E4
  8
PRINT3
 10
266.8819381928288
 20
-130.2537985100166
 30
0.0
  0
VERTEX
  5
2E5
  8
PRINT3
 10
266.693181411192
 20
-130.2537985100166
 30
0.0
  0
VERTEX
  5
2E6
  8
PRINT3
 10
266.693181411192
 20
-130.539121318105
 30
0.0
  0
VERTEX
  5
2E7
  8
PRINT3
 10
266.9828450395918
 20
-130.539121318105
 30
0.0
  0
VERTEX
  5
2E8
  8
PRINT3
 10
266.9828450395918
 20
-130.6409238896941
 30
0.0
  0
VERTEX
  5
2E9
  8
PRINT3
 10
266.6879448660545
 20
-130.6409238896941
 30
0.0
  0
VERTEX
  5
2EA
  8
PRINT3
 10
266.6879448660545
 20
-130.5443578632426
 30
0.0
  0
VERTEX
  5
2EB
  8
PRINT3
 10
266.5914132905577
 20
-130.5443578632426
 30
0.0
  0
SEQEND
  5
2EC
  8
PRINT3
  0
POLYLINE
  5
2ED
  8
PRINT3
 66
     1
 10
0.0
 20
0.0
 30
0.0
 70
     1
  0
VERTEX
  5
2EE
  8
PRINT3
 10
265.9205498467151
 20
-130.4425897426083
 30
0.0
  0
VERTEX
  5
2EF
  8
PRINT3
 10
266.0223179673494
 20
-130.4425897426083
 30
0.0
  0
VERTEX
  5
2F0
  8
PRINT3
 10
266.0223179673494
 20
-130.539121318105
 30
0.0
  0
VERTEX
  5
2F1
  8
PRINT3
 10
266.3076407754377
 20
-130.539121318105
 30
0.0
  0
VERTEX
  5
2F2
  8
PRINT3
 10
266.3076407754377
 20
-130.3503645364682
 30
0.0
  0
VERTEX
  5
2F3
  8
PRINT3
 10
266.1145087225346
 20
-130.3503645364682
 30
0.0
  0
VERTEX
  5
2F4
  8
PRINT3
 10
266.1145087225346
 20
-130.2537985100166
 30
0.0
  0
VERTEX
  5
2F5
  8
PRINT3
 10
266.0170814222117
 20
-130.2537985100166
 30
0.0
  0
VERTEX
  5
2F6
  8
PRINT3
 10
266.0170814222117
 20
-130.1572669345199
 30
0.0
  0
VERTEX
  5
2F7
  8
PRINT3
 10
265.9205498467151
 20
-130.1572669345199
 30
0.0
  0
VERTEX
  5
2F8
  8
PRINT3
 10
265.9205498467151
 20
-129.9589327874341
 30
0.0
  0
VERTEX
  5
2F9
  8
PRINT3
 10
266.4085476222007
 20
-129.9589327874341
 30
0.0
  0
VERTEX
  5
2FA
  8
PRINT3
 10
266.4085476222007
 20
-130.1572669345199
 30
0.0
  0
VERTEX
  5
2FB
  8
PRINT3
 10
266.3076407754377
 20
-130.1572669345199
 30
0.0
  0
VERTEX
  5
2FC
  8
PRINT3
 10
266.3076407754377
 20
-130.0607009080684
 30
0.0
  0
VERTEX
  5
2FD
  8
PRINT3
 10
266.0223179673494
 20
-130.0607009080684
 30
0.0
  0
VERTEX
  5
2FE
  8
PRINT3
 10
266.0223179673494
 20
-130.1529261142085
 30
0.0
  0
VERTEX
  5
2FF
  8
PRINT3
 10
266.1188839938009
 20
-130.1529261142085
 30
0.0
  0
VERTEX
  5
300
  8
PRINT3
 10
266.1188839938009
 20
-130.2494576897052
 30
0.0
  0
VERTEX
  5
301
  8
PRINT3
 10
266.3119815957492
 20
-130.2494576897052
 30
0.0
  0
VERTEX
  5
302
  8
PRINT3
 10
266.3119815957492
 20
-130.3460237161567
 30
0.0
  0
VERTEX
  5
303
  8
PRINT3
 10
266.4085476222007
 20
-130.3460237161567
 30
0.0
  0
VERTEX
  5
304
  8
PRINT3
 10
266.4085476222007
 20
-130.6409238896941
 30
0.0
  0
VERTEX
  5
305
  8
PRINT3
 10
265.9205498467151
 20
-130.6409238896941
 30
0.0
  0
SEQEND
  5
306
  8
PRINT3
  0
POLYLINE
  5
307
  8
PRINT3
 66
     1
 10
0.0
 20
0.0
 30
0.0
 70
     1
  0
VERTEX
  5
308
  8
PRINT3
 10
264.8625954741497
 20
-130.447791836791
 30
0.0
  0
VERTEX
  5
309
  8
PRINT3
 10
264.8625954741497
 20
-130.539121318105
 30
0.0
  0
VERTEX
  5
30A
  8
PRINT3
 10
265.0513867067414
 20
-130.539121318105
 30
0.0
  0
VERTEX
  5
30B
  8
PRINT3
 10
265.0513867067414
 20
-130.447791836791
 30
0.0
  0
SEQEND
  5
30C
  8
PRINT3
  0
POLYLINE
  5
30D
  8
PRINT3
 66
     1
 10
0.0
 20
0.0
 30
0.0
 70
     1
  0
VERTEX
  5
30E
  8
PRINT3
 10
264.7608273535154
 20
-130.3460237161567
 30
0.0
  0
VERTEX
  5
30F
  8
PRINT3
 10
265.0513867067414
 20
-130.3460237161567
 30
0.0
  0
VERTEX
  5
310
  8
PRINT3
 10
265.0513867067414
 20
-130.2537985100166
 30
0.0
  0
VERTEX
  5
311
  8
PRINT3
 10
264.7608273535154
 20
-130.2537985100166
 30
0.0
  0
VERTEX
  5
312
  8
PRINT3
 10
264.7608273535154
 20
-130.1529261142085
 30
0.0
  0
VERTEX
  5
313
  8
PRINT3
 10
265.0557275270528
 20
-130.1529261142085
 30
0.0
  0
VERTEX
  5
314
  8
PRINT3
 10
265.0557275270528
 20
-130.2494576897052
 30
0.0
  0
VERTEX
  5
315
  8
PRINT3
 10
265.1522935535043
 20
-130.2494576897052
 30
0.0
  0
VERTEX
  5
316
  8
PRINT3
 10
265.1522935535043
 20
-130.539121318105
 30
0.0
  0
VERTEX
  5
317
  8
PRINT3
 10
265.248825129001
 20
-130.539121318105
 30
0.0
  0
VERTEX
  5
318
  8
PRINT3
 10
265.248825129001
 20
-130.6409238896941
 30
0.0
  0
VERTEX
  5
319
  8
PRINT3
 10
265.1479182822381
 20
-130.6409238896941
 30
0.0
  0
VERTEX
  5
31A
  8
PRINT3
 10
265.1479182822381
 20
-130.5443578632426
 30
0.0
  0
VERTEX
  5
31B
  8
PRINT3
 10
265.0557275270528
 20
-130.5443578632426
 30
0.0
  0
VERTEX
  5
31C
  8
PRINT3
 10
265.0557275270528
 20
-130.6409238896941
 30
0.0
  0
VERTEX
  5
31D
  8
PRINT3
 10
264.8573933799669
 20
-130.6409238896941
 30
0.0
  0
VERTEX
  5
31E
  8
PRINT3
 10
264.8573933799669
 20
-130.5443578632426
 30
0.0
  0
VERTEX
  5
31F
  8
PRINT3
 10
264.7608273535154
 20
-130.5443578632426
 30
0.0
  0
SEQEND
  5
320
  8
PRINT3
  0
POLYLINE
  5
321
  8
PRINT3
 66
     1
 10
0.0
 20
0.0
 30
0.0
 70
     1
  0
VERTEX
  5
322
  8
PRINT3
 10
263.9925366093498
 20
-130.539121318105
 30
0.0
  0
VERTEX
  5
323
  8
PRINT3
 10
264.0891026358014
 20
-130.539121318105
 30
0.0
  0
VERTEX
  5
324
  8
PRINT3
 10
264.0891026358014
 20
-130.0607009080684
 30
0.0
  0
VERTEX
  5
325
  8
PRINT3
 10
263.9925366093498
 20
-130.0607009080684
 30
0.0
  0
VERTEX
  5
326
  8
PRINT3
 10
263.9925366093498
 20
-129.9589327874341
 30
0.0
  0
VERTEX
  5
327
  8
PRINT3
 10
264.2874367828872
 20
-129.9589327874341
 30
0.0
  0
VERTEX
  5
328
  8
PRINT3
 10
264.2874367828872
 20
-130.0607009080684
 30
0.0
  0
VERTEX
  5
329
  8
PRINT3
 10
264.1908707564357
 20
-130.0607009080684
 30
0.0
  0
VERTEX
  5
32A
  8
PRINT3
 10
264.1908707564357
 20
-130.539121318105
 30
0.0
  0
VERTEX
  5
32B
  8
PRINT3
 10
264.4761935645241
 20
-130.539121318105
 30
0.0
  0
VERTEX
  5
32C
  8
PRINT3
 10
264.4761935645241
 20
-130.4425897426083
 30
0.0
  0
VERTEX
  5
32D
  8
PRINT3
 10
264.5779616851584
 20
-130.4425897426083
 30
0.0
  0
VERTEX
  5
32E
  8
PRINT3
 10
264.5779616851584
 20
-130.6409238896941
 30
0.0
  0
VERTEX
  5
32F
  8
PRINT3
 10
263.9925366093498
 20
-130.6409238896941
 30
0.0
  0
SEQEND
  5
330
  8
PRINT3
  0
POLYLINE
  5
331
  8
PRINT3
 66
     1
 10
0.0
 20
0.0
 30
0.0
 70
     1
  0
VERTEX
  5
332
  8
PRINT3
 10
273.5770678569537
 20
-133.6780576779972
 30
0.0
  0
VERTEX
  5
333
  8
PRINT3
 10
273.5770678569537
 20
-151.2706724196929
 30
0.0
  0
VERTEX
  5
334
  8
PRINT3
 10
275.0903260488497
 20
-151.2706724196929
 30
0.0
  0
VERTEX
  5
335
  8
PRINT3
 10
275.0896025787978
 20
-157.94075623964
 30
0.0
  0
VERTEX
  5
336
  8
PRINT3
 10
266.8381510292114
 20
-157.94075623964
 30
0.0
  0
VERTEX
  5
337
  8
PRINT3
 10
266.8388744992632
 20
-151.2706724196929
 30
0.0
  0
VERTEX
  5
338
  8
PRINT3
 10
267.6240462113065
 20
-151.2706724196929
 30
0.0
  0
VERTEX
  5
339
  8
PRINT3
 10
267.6240462113065
 20
-150.213544870044
 30
0.0
  0
VERTEX
  5
33A
  8
PRINT3
 10
268.024021797144
 20
-150.213544870044
 30
0.0
  0
VERTEX
  5
33B
  8
PRINT3
 10
268.024021797144
 20
-151.6706480055304
 30
0.0
  0
VERTEX
  5
33C
  8
PRINT3
 10
267.2388500851008
 20
-151.6706480055304
 30
0.0
  0
VERTEX
  5
33D
  8
PRINT3
 10
267.2381955169586
 20
-157.5407806538025
 30
0.0
  0
VERTEX
  5
33E
  8
PRINT3
 10
274.6896269929603
 20
-157.5407806538025
 30
0.0
  0
VERTEX
  5
33F
  8
PRINT3
 10
274.6902815611025
 20
-151.6706480055304
 30
0.0
  0
VERTEX
  5
340
  8
PRINT3
 10
273.1770922711162
 20
-151.6706480055304
 30
0.0
  0
VERTEX
  5
341
  8
PRINT3
 10
273.1770922711162
 20
-119.7358358661617
 30
0.0
  0
VERTEX
  5
342
  8
PRINT3
 10
261.0793294160677
 20
-119.7358358661617
 30
0.0
  0
VERTEX
  5
343
  8
PRINT3
 10
261.0793294160677
 20
-143.309883576197
 30
0.0
  0
VERTEX
  5
344
  8
PRINT3
 10
268.024021797144
 20
-143.309883576197
 30
0.0
  0
VERTEX
  5
345
  8
PRINT3
 10
268.024021797144
 20
-148.8304768365356
 30
0.0
  0
VERTEX
  5
346
  8
PRINT3
 10
267.6240462113065
 20
-148.8304768365356
 30
0.0
  0
VERTEX
  5
347
  8
PRINT3
 10
267.6240462113065
 20
-143.7098591620345
 30
0.0
  0
VERTEX
  5
348
  8
PRINT3
 10
260.6793538302302
 20
-143.7098591620345
 30
0.0
  0
VERTEX
  5
349
  8
PRINT3
 10
260.6793538302302
 20
-119.3358258293694
 30
0.0
  0
VERTEX
  5
34A
  8
PRINT3
 10
273.5770678569537
 20
-119.3358258293694
 30
0.0
  0
VERTEX
  5
34B
  8
PRINT3
 10
273.5770678569537
 20
-119.3359808781606
 30
0.0
  0
VERTEX
  5
34C
  8
PRINT3
 10
275.9061861879202
 20
-119.3359808781606
 30
0.0
  0
VERTEX
  5
34D
  8
PRINT3
 10
275.9061861879202
 20
-133.6780576779973
 30
0.0
  0
SEQEND
  5
34E
  8
PRINT3
  0
POLYLINE
  5
34F
  8
PRINT3
 66
     1
 10
0.0
 20
0.0
 30
0.0
 70
     1
  0
VERTEX
  5
350
  8
PRINT3
 10
338.205694359893
 20
-173.6058332899321
 30
0.0
  0
VERTEX
  5
351
  8
PRINT3
 10
258.2056943798929
 20
-173.6058332899321
 30
0.0
  0
VERTEX
  5
352
  8
PRINT3
 10
258.2056943798929
 20
-118.6058333036821
 30
0.0
  0
VERTEX
  5
353
  8
PRINT3
 10
338.205694359893
 20
-118.6058333036821
 30
0.0
  0
SEQEND
  5
354
  8
PRINT3
  0
POLYLINE
  5
355
  8
PRINT3
 62
   240
 66
     1
 10
0.0
 20
0.0
 30
0.0
  0
VERTEX
  5
356
  8
PRINT3
 62
   240
 10
258.2056943798929
 20
-151.0222080860956
 30
0.0
  0
VERTEX
  5
357
  8
PRINT3
 62
   240
 10
261.9062062170134
 20
-151.0222080860956
 30
0.0
  0
VERTEX
  5
358
  8
PRINT3
 62
   240
 10
261.9062062170134
 20
-155.1861298090646
 30
0.0
  0
VERTEX
  5
359
  8
PRINT3
 62
   240
 10
258.2056943798929
 20
-155.1861298090646
 30
0.0
  0
SEQEND
  5
35A
  8
PRINT3
 62
   240
  0
POLYLINE
  5
35B
  8
PRINT3
 62
   240
 66
     1
 10
0.0
 20
0.0
 30
0.0
  0
VERTEX
  5
35C
  8
PRINT3
 62
   240
 10
258.2056943798929
 20
-151.0222080860956
 30
0.0
  0
VERTEX
  5
35D
  8
PRINT3
 62
   240
 10
261.9062062170134
 20
-151.0222080860956
 30
0.0
  0
VERTEX
  5
35E
  8
PRINT3
 62
   240
 10
261.9062062170134
 20
-155.1861298090646
 30
0.0
  0
VERTEX
  5
35F
  8
PRINT3
 62
   240
 10
258.2056943798929
 20
-155.1861298090646
 30
0.0
  0
SEQEND
  5
360
  8
PRINT3
 62
   240
  0
LINE
  5
361
  8
PRINT3
 62
   240
 10
267.6378826388326
 20
-146.8200297568496
 30
0.0
 11
258.2056943798929
 21
-146.8200297564184
 31
0.0
  0
LINE
  5
362
  8
PRINT3
 62
   240
 10
258.2056943798929
 20
-157.920582930729
 30
0.0
 11
266.8551803228263
 21
-157.9108914792934
 31
0.0
  0
POLYLINE
  5
363
  8
PRINT3
 62
   240
 66
     1
 10
0.0
 20
0.0
 30
0.0
  0
VERTEX
  5
364
  8
PRINT3
 62
   240
 10
275.0772672566335
 20
-157.9016789137441
 30
0.0
  0
VERTEX
  5
365
  8
PRINT3
 62
   240
 10
285.5215153477799
 20
-157.8899764930659
 30
0.0
  0
VERTEX
  5
366
  8
PRINT3
 62
   240
 10
285.5220230190333
 20
-159.2064088801307
 30
0.0
  0
VERTEX
  5
367
  8
PRINT3
 62
   240
 10
295.790608079952
 20
-159.2064088801307
 30
0.0
  0
VERTEX
  5
368
  8
PRINT3
 62
   240
 10
295.790608079952
 20
-118.6058333036821
 30
0.0
  0
SEQEND
  5
369
  8
PRINT3
 62
   240
  0
LINE
  5
36A
  8
PRINT3
 62
   240
 10
260.780653993009
 20
-118.6058333036821
 30
0.0
 11
260.7791399026655
 21
-119.3544785446309
 31
0.0
  0
LINE
  5
36B
  8
PRINT3
 62
   240
 10
273.4453219401478
 20
-118.6058333036821
 30
0.0
 11
273.4453219401478
 21
-119.3649590644906
 31
0.0
  0
INSERT
  5
457
  8
PRINT3
  2
BLOCK_291
 10
0.0
 20
0.0
 30
0.0
  0
CIRCLE
  5
458
  8
PRINT3
 62
   240
 10
-267.0469754920499
 20
-124.5773873786232
 30
0.0
 40
0.7499999998124736
210
0.0
220
0.0
230
-1.0
  0
CIRCLE
  5
459
  8
PRINT3
 62
   240
 10
-267.0469754920499
 20
-132.9280576781848
 30
0.0
 40
0.7499999998124736
210
0.0
220
0.0
230
-1.0
  0
LINE
  5
45A
  8
PRINT3
 62
   240
 10
261.357141469843
 20
-151.0073332422724
 30
0.0
 11
261.357141469843
 21
-155.1816964390572
 31
0.0
  0
LINE
  5
45B
  8
PRINT3
 62
   240
 10
260.782633736117
 20
-151.0073332422724
 30
0.0
 11
260.782633736117
 21
-155.1816964390572
 31
0.0
  0
LINE
  5
45C
  8
PRINT3
 62
   240
 10
260.2081314088094
 20
-151.0073332422724
 30
0.0
 11
260.2081314088094
 21
-155.1816964390572
 31
0.0
  0
LINE
  5
45D
  8
PRINT3
 62
   240
 10
259.6336453007606
 20
-151.0073332422724
 30
0.0
 11
259.6336453007606
 21
-155.1816964390572
 31
0.0
  0
LINE
  5
45E
  8
PRINT3
 62
   240
 10
259.0591429734538
 20
-151.0073332422724
 30
0.0
 11
259.0591429734538
 21
-155.1816964390572
 31
0.0
  0
LINE
  5
45F
  8
PRINT3
 62
   240
 10
258.4846352397278
 20
-151.0073332422724
 30
0.0
 11
258.4846352397278
 21
-155.1816964390572
 31
0.0
  0
LINE
  5
460
  8
PRINT3
 62
   240
 10
271.8810758310875
 20
-151.6470424679444
 30
0.0
 11
271.8810758310875
 21
-157.5630145770304
 31
0.0
  0
LINE
  5
461
  8
PRINT3
 62
   240
 10
268.0004080537272
 20
-151.6432829233922
 30
0.0
 11
268.7462432047575
 21
-151.6432829233922
 31
0.0
  0
LINE
  5
462
  8
PRINT3
 62
   240
 10
270.1293132035769
 20
-151.6432829233922
 30
0.0
 11
273.200685401337
 21
-151.6432829233922
 31
0.0
  0
LINE
  5
463
  8
PRINT3
 62
   240
 10
261.0645068763088
 20
-139.2834458284702
 30
0.0
 11
270.8783613558346
 21
-139.2621997189803
 31
0.0
  0
LINE
  5
464
  8
PRINT3
 62
   240
 10
268.0004750040152
 20
-143.3358430999278
 30
0.0
 11
270.8783613558346
 21
-143.3358430999278
 31
0.0
  0
POLYLINE
  5
465
  8
PRINT3
 62
   240
 66
     1
 10
0.0
 20
0.0
 30
0.0
  0
VERTEX
  5
466
  8
PRINT3
 62
   240
 10
270.878363474588
 20
-145.8939644607729
 30
0.0
  0
VERTEX
  5
467
  8
PRINT3
 62
   240
 10
270.878363474588
 20
-146.816188500648
 30
0.0
  0
VERTEX
  5
468
  8
PRINT3
 62
   240
 10
267.9913679880135
 20
-146.816188500648
 30
0.0
  0
SEQEND
  5
469
  8
PRINT3
 62
   240
  0
LINE
  5
46A
  8
PRINT3
 62
   240
 10
270.878363474588
 20
-141.1958816551495
 30
0.0
 11
270.878363474588
 21
-144.26676722542
 31
0.0
  0
LINE
  5
46B
  8
PRINT3
 62
   240
 10
270.878363474588
 20
-138.711586900858
 30
0.0
 11
270.878363474588
 21
-139.8128125371027
 31
0.0
  0
POLYLINE
  5
46C
  8
PRINT3
 62
   240
 66
     1
 10
0.0
 20
0.0
 30
0.0
  0
VERTEX
  5
46D
  8
PRINT3
 62
   240
 10
270.878363474588
 20
-137.328515636585
 30
0.0
  0
VERTEX
  5
46E
  8
PRINT3
 62
   240
 10
270.878363474588
 20
-135.4850119110598
 30
0.0
  0
VERTEX
  5
46F
  8
PRINT3
 62
   240
 10
261.0645068763088
 20
-135.4850119110598
 30
0.0
  0
SEQEND
  5
470
  8
PRINT3
 62
   240
  0
LINE
  5
471
  8
PRINT3
 62
   240
 10
261.0645068763088
 20
-127.475542379382
 30
0.0
 11
267.0505159333226
 21
-127.475542379382
 31
0.0
  0
ENDSEC
  0
EOF
