  0
SECTION
  2
HEADER
  9
$ACADVER
  1
AC1009
  9
$DWGCODEPAGE
  3
ansi_1252
  9
$INSBASE
 10
0.0
 20
0.0
 30
0.0
  9
$EXTMIN
 10
1.000000000000000E+20
 20
1.000000000000000E+20
 30
1.000000000000000E+20
  9
$EXTMAX
 10
-1.000000000000000E+20
 20
-1.000000000000000E+20
 30
-1.000000000000000E+20
  9
$LIMMIN
 10
0.0
 20
0.0
  9
$LIMMAX
 10
12.0
 20
9.0
  9
$ORTHOMODE
 70
     0
  9
$REGENMODE
 70
     1
  9
$FILLMODE
 70
     1
  9
$QTEXTMODE
 70
     0
  9
$MIRRTEXT
 70
     1
  9
$DRAGMODE
 70
     2
  9
$LTSCALE
 40
1.0
  9
$OSMODE
 70
    37
  9
$ATTMODE
 70
     1
  9
$TEXTSIZE
 40
0.2
  9
$TRACEWID
 40
0.05
  9
$TEXTSTYLE
  7
STANDARD
  9
$CLAYER
  8
0
  9
$CELTYPE
  6
BYLAYER
  9
$CECOLOR
 62
   256
  9
$DIMSCALE
 40
1.0
  9
$DIMASZ
 40
0.18
  9
$DIMEXO
 40
0.0625
  9
$DIMDLI
 40
0.38
  9
$DIMRND
 40
0.0
  9
$DIMDLE
 40
0.0
  9
$DIMEXE
 40
0.18
  9
$DIMTP
 40
0.0
  9
$DIMTM
 40
0.0
  9
$DIMTXT
 40
0.18
  9
$DIMCEN
 40
0.09
  9
$DIMTSZ
 40
0.0
  9
$DIMTOL
 70
     0
  9
$DIMLIM
 70
     0
  9
$DIMTIH
 70
     1
  9
$DIMTOH
 70
     1
  9
$DIMSE1
 70
     0
  9
$DIMSE2
 70
     0
  9
$DIMTAD
 70
     0
  9
$DIMZIN
 70
     0
  9
$DIMBLK
  1

  9
$DIMASO
 70
     1
  9
$DIMSHO
 70
     1
  9
$DIMPOST
  1

  9
$DIMAPOST
  1

  9
$DIMALT
 70
     0
  9
$DIMALTD
 70
     2
  9
$DIMALTF
 40
25.4
  9
$DIMLFAC
 40
1.0
  9
$DIMTOFL
 70
     0
  9
$DIMTVP
 40
0.0
  9
$DIMTIX
 70
     0
  9
$DIMSOXD
 70
     0
  9
$DIMSAH
 70
     0
  9
$DIMBLK1
  1

  9
$DIMBLK2
  1

  9
$DIMSTYLE
  2
STANDARD_ACAD
  9
$DIMCLRD
 70
     0
  9
$DIMCLRE
 70
     0
  9
$DIMCLRT
 70
     0
  9
$DIMTFAC
 40
1.0
  9
$DIMGAP
 40
0.09
  9
$LUNITS
 70
     2
  9
$LUPREC
 70
     3
  9
$SKETCHINC
 40
0.1
  9
$FILLETRAD
 40
0.5
  9
$AUNITS
 70
     0
  9
$AUPREC
 70
     0
  9
$MENU
  1
.
  9
$ELEVATION
 40
0.0
  9
$PELEVATION
 40
0.0
  9
$THICKNESS
 40
0.0
  9
$LIMCHECK
 70
     0
  9
$CHAMFERA
 40
0.0
  9
$CHAMFERB
 40
0.0
  9
$SKPOLY
 70
     0
  9
$TDCREATE
 40
2458330.118310058
  9
$TDUPDATE
 40
2458330.118323715
  9
$TDINDWG
 40
0.0000000116
  9
$TDUSRTIMER
 40
0.0000000116
  9
$USRTIMER
 70
     1
  9
$ANGBASE
 50
0.0
  9
$ANGDIR
 70
     0
  9
$PDMODE
 70
     0
  9
$PDSIZE
 40
0.0
  9
$PLINEWID
 40
0.0
  9
$COORDS
 70
     1
  9
$SPLFRAME
 70
     0
  9
$SPLINETYPE
 70
     6
  9
$SPLINESEGS
 70
     8
  9
$ATTDIA
 70
     0
  9
$ATTREQ
 70
     1
  9
$HANDLING
 70
     1
  9
$HANDSEED
  5
17E
  9
$SURFTAB1
 70
     6
  9
$SURFTAB2
 70
     6
  9
$SURFTYPE
 70
     6
  9
$SURFU
 70
     6
  9
$SURFV
 70
     6
  9
$UCSNAME
  2

  9
$UCSORG
 10
0.0
 20
0.0
 30
0.0
  9
$UCSXDIR
 10
1.0
 20
0.0
 30
0.0
  9
$UCSYDIR
 10
0.0
 20
1.0
 30
0.0
  9
$PUCSNAME
  2

  9
$PUCSORG
 10
0.0
 20
0.0
 30
0.0
  9
$PUCSXDIR
 10
1.0
 20
0.0
 30
0.0
  9
$PUCSYDIR
 10
0.0
 20
1.0
 30
0.0
  9
$USERI1
 70
     0
  9
$USERI2
 70
     0
  9
$USERI3
 70
     0
  9
$USERI4
 70
     0
  9
$USERI5
 70
     0
  9
$USERR1
 40
0.0
  9
$USERR2
 40
0.0
  9
$USERR3
 40
0.0
  9
$USERR4
 40
0.0
  9
$USERR5
 40
0.0
  9
$WORLDVIEW
 70
     1
  9
$SHADEDGE
 70
     3
  9
$SHADEDIF
 70
    70
  9
$TILEMODE
 70
     1
  9
$MAXACTVP
 70
    64
  9
$PLIMCHECK
 70
     0
  9
$PEXTMIN
 10
1.000000000000000E+20
 20
1.000000000000000E+20
 30
1.000000000000000E+20
  9
$PEXTMAX
 10
-1.000000000000000E+20
 20
-1.000000000000000E+20
 30
-1.000000000000000E+20
  9
$PLIMMIN
 10
0.0
 20
0.0
  9
$PLIMMAX
 10
12.0
 20
9.0
  9
$UNITMODE
 70
     0
  9
$VISRETAIN
 70
     1
  9
$PLINEGEN
 70
     0
  9
$PSLTSCALE
 70
     1
  0
ENDSEC
  0
SECTION
  2
TABLES
  0
TABLE
  2
VPORT
 70
     1
  0
VPORT
  2
*ACTIVE
 70
     0
 10
0.0
 20
0.0
 11
1.0
 21
1.0
 12
10.42990654205607
 22
4.5
 13
0.0
 23
0.0
 14
0.5
 24
0.5
 15
0.5
 25
0.5
 16
0.0
 26
0.0
 36
1.0
 17
0.0
 27
0.0
 37
0.0
 40
9.0
 41
1.972972972850329
 42
50.0
 43
0.0
 44
0.0
 50
0.0
 51
0.0
 71
     0
 72
   100
 73
     1
 74
     3
 75
     0
 76
     0
 77
     0
 78
     0
  0
ENDTAB
  0
TABLE
  2
LTYPE
 70
     1
  0
LTYPE
  2
CONTINUOUS
 70
     0
  3
Solid line
 72
    65
 73
     0
 40
0.0
  0
ENDTAB
  0
TABLE
  2
LAYER
 70
     2
  0
LAYER
  2
0
 70
     0
 62
     7
  6
CONTINUOUS
  0
LAYER
  2
PRINT4
 70
     0
 62
     7
  6
CONTINUOUS
  0
ENDTAB
  0
TABLE
  2
STYLE
 70
     1
  0
STYLE
  2
STANDARD
 70
     0
 40
0.0
 41
1.0
 50
0.0
 71
     0
 42
0.2
  3
txt
  4

  0
ENDTAB
  0
TABLE
  2
VIEW
 70
     0
  0
ENDTAB
  0
TABLE
  2
UCS
 70
     0
  0
ENDTAB
  0
TABLE
  2
APPID
 70
     1
  0
APPID
  2
ACAD
 70
     0
  0
ENDTAB
  0
TABLE
  2
DIMSTYLE
 70
     1
  0
DIMSTYLE
  2
STANDARD_ACAD
 70
     0
  3

  4

  5

  6

  7

 40
1.0
 41
0.18
 42
0.0625
 43
0.38
 44
0.18
 45
0.0
 46
0.0
 47
0.0
 48
0.0
140
0.18
141
0.09
142
0.0
143
25.4
144
1.0
145
0.0
146
1.0
147
0.09
 71
     0
 72
     0
 73
     1
 74
     1
 75
     0
 76
     0
 77
     0
 78
     0
170
     0
171
     2
172
     0
173
     0
174
     0
175
     0
176
     0
177
     0
178
     0
  0
ENDTAB
  0
ENDSEC
  0
SECTION
  2
BLOCKS
  0
BLOCK
  8
0
  2
$MODEL_SPACE
 70
     0
 10
0.0
 20
0.0
 30
0.0
  3
$MODEL_SPACE
  1

  0
ENDBLK
  5
21
  8
0
  0
BLOCK
 67
     1
  8
0
  2
$PAPER_SPACE
 70
     0
 10
0.0
 20
0.0
 30
0.0
  3
$PAPER_SPACE
  1

  0
ENDBLK
  5
1D
 67
     1
  8
0
  0
ENDSEC
  0
SECTION
  2
ENTITIES
  0
LINE
  5
6F
  8
PRINT4
 62
   240
 10
295.790608079952
 20
-236.0102777187752
 30
0.0
 11
295.790608079952
 21
-221.1731222803116
 31
0.0
  0
LINE
  5
70
  8
PRINT4
 62
   240
 10
267.0320278944108
 20
-199.3619267753069
 30
0.0
 11
258.2056943798929
 21
-199.3568098618127
 31
0.0
  0
LINE
  5
71
  8
PRINT4
 62
   240
 10
258.2056943798929
 20
-207.6631437538726
 30
0.0
 11
260.8348031018762
 21
-207.6651236590818
 31
0.0
  0
LINE
  5
72
  8
PRINT4
 62
   240
 10
260.8323276260529
 20
-210.4601382390036
 30
0.0
 11
260.780653993009
 21
-236.0102777187752
 31
0.0
  0
LINE
  5
73
  8
PRINT4
 62
   240
 10
273.4453219401478
 20
-210.5192718823452
 30
0.0
 11
273.4453219401478
 21
-236.0102777187752
 31
0.0
  0
POLYLINE
  5
74
  8
PRINT4
 66
     1
 10
0.0
 20
0.0
 30
0.0
 70
     1
  0
VERTEX
  5
75
  8
PRINT4
 10
283.8912014264238
 20
-198.4090182195403
 30
0.0
  0
VERTEX
  5
76
  8
PRINT4
 10
283.8912014264238
 20
-198.5003477008543
 30
0.0
  0
VERTEX
  5
77
  8
PRINT4
 10
284.0799582080606
 20
-198.5003477008543
 30
0.0
  0
VERTEX
  5
78
  8
PRINT4
 10
284.0799582080606
 20
-198.4090182195403
 30
0.0
  0
SEQEND
  5
79
  8
PRINT4
  0
POLYLINE
  5
7A
  8
PRINT4
 66
     1
 10
0.0
 20
0.0
 30
0.0
 70
     1
  0
VERTEX
  5
7B
  8
PRINT4
 10
283.7894333057895
 20
-198.307250098906
 30
0.0
  0
VERTEX
  5
7C
  8
PRINT4
 10
284.0799582080606
 20
-198.307250098906
 30
0.0
  0
VERTEX
  5
7D
  8
PRINT4
 10
284.0799582080606
 20
-198.2150248927659
 30
0.0
  0
VERTEX
  5
7E
  8
PRINT4
 10
283.7894333057895
 20
-198.2150248927659
 30
0.0
  0
VERTEX
  5
7F
  8
PRINT4
 10
283.7894333057895
 20
-198.1141524969578
 30
0.0
  0
VERTEX
  5
80
  8
PRINT4
 10
284.0843334793269
 20
-198.1141524969578
 30
0.0
  0
VERTEX
  5
81
  8
PRINT4
 10
284.0843334793269
 20
-198.2106840724545
 30
0.0
  0
VERTEX
  5
82
  8
PRINT4
 10
284.1808650548236
 20
-198.2106840724545
 30
0.0
  0
VERTEX
  5
83
  8
PRINT4
 10
284.1808650548236
 20
-198.5003477008543
 30
0.0
  0
VERTEX
  5
84
  8
PRINT4
 10
284.2773966303203
 20
-198.5003477008543
 30
0.0
  0
VERTEX
  5
85
  8
PRINT4
 10
284.2773966303203
 20
-198.6021502724434
 30
0.0
  0
VERTEX
  5
86
  8
PRINT4
 10
284.1765242345122
 20
-198.6021502724434
 30
0.0
  0
VERTEX
  5
87
  8
PRINT4
 10
284.1765242345122
 20
-198.5055842459919
 30
0.0
  0
VERTEX
  5
88
  8
PRINT4
 10
284.0843334793269
 20
-198.5055842459919
 30
0.0
  0
VERTEX
  5
89
  8
PRINT4
 10
284.0843334793269
 20
-198.6021502724434
 30
0.0
  0
VERTEX
  5
8A
  8
PRINT4
 10
283.8859648812862
 20
-198.6021502724434
 30
0.0
  0
VERTEX
  5
8B
  8
PRINT4
 10
283.8859648812862
 20
-198.5055842459919
 30
0.0
  0
VERTEX
  5
8C
  8
PRINT4
 10
283.7894333057895
 20
-198.5055842459919
 30
0.0
  0
SEQEND
  5
8D
  8
PRINT4
  0
POLYLINE
  5
8E
  8
PRINT4
 66
     1
 10
0.0
 20
0.0
 30
0.0
 70
     1
  0
VERTEX
  5
8F
  8
PRINT4
 10
282.9240942218044
 20
-198.5003477008543
 30
0.0
  0
VERTEX
  5
90
  8
PRINT4
 10
283.0206946992108
 20
-198.5003477008543
 30
0.0
  0
VERTEX
  5
91
  8
PRINT4
 10
283.0206946992108
 20
-198.2150248927659
 30
0.0
  0
VERTEX
  5
92
  8
PRINT4
 10
282.9240942218044
 20
-198.2150248927659
 30
0.0
  0
VERTEX
  5
93
  8
PRINT4
 10
282.9240942218044
 20
-198.1141524969578
 30
0.0
  0
VERTEX
  5
94
  8
PRINT4
 10
283.1224628198451
 20
-198.1141524969578
 30
0.0
  0
VERTEX
  5
95
  8
PRINT4
 10
283.1224628198451
 20
-198.2106840724545
 30
0.0
  0
VERTEX
  5
96
  8
PRINT4
 10
283.2146535750304
 20
-198.2106840724545
 30
0.0
  0
VERTEX
  5
97
  8
PRINT4
 10
283.2146535750304
 20
-198.1141524969578
 30
0.0
  0
VERTEX
  5
98
  8
PRINT4
 10
283.4121264482449
 20
-198.1141524969578
 30
0.0
  0
VERTEX
  5
99
  8
PRINT4
 10
283.4121264482449
 20
-198.2106840724545
 30
0.0
  0
VERTEX
  5
9A
  8
PRINT4
 10
283.5095537485678
 20
-198.2106840724545
 30
0.0
  0
VERTEX
  5
9B
  8
PRINT4
 10
283.5095537485678
 20
-198.5003477008543
 30
0.0
  0
VERTEX
  5
9C
  8
PRINT4
 10
283.6060853240645
 20
-198.5003477008543
 30
0.0
  0
VERTEX
  5
9D
  8
PRINT4
 10
283.6060853240645
 20
-198.6021502724434
 30
0.0
  0
VERTEX
  5
9E
  8
PRINT4
 10
283.4077856279335
 20
-198.6021502724434
 30
0.0
  0
VERTEX
  5
9F
  8
PRINT4
 10
283.4077856279335
 20
-198.2150248927659
 30
0.0
  0
VERTEX
  5
A0
  8
PRINT4
 10
283.2189943953418
 20
-198.2150248927659
 30
0.0
  0
VERTEX
  5
A1
  8
PRINT4
 10
283.2189943953418
 20
-198.3115909192174
 30
0.0
  0
VERTEX
  5
A2
  8
PRINT4
 10
283.1224628198451
 20
-198.3115909192174
 30
0.0
  0
VERTEX
  5
A3
  8
PRINT4
 10
283.1224628198451
 20
-198.6021502724434
 30
0.0
  0
VERTEX
  5
A4
  8
PRINT4
 10
282.9240942218044
 20
-198.6021502724434
 30
0.0
  0
SEQEND
  5
A5
  8
PRINT4
  0
POLYLINE
  5
A6
  8
PRINT4
 66
     1
 10
0.0
 20
0.0
 30
0.0
 70
     1
  0
VERTEX
  5
A7
  8
PRINT4
 10
282.5434111706844
 20
-197.9201591701833
 30
0.0
  0
VERTEX
  5
A8
  8
PRINT4
 10
282.6451792913186
 20
-197.9201591701833
 30
0.0
  0
VERTEX
  5
A9
  8
PRINT4
 10
282.6451792913186
 20
-198.0219272908176
 30
0.0
  0
VERTEX
  5
AA
  8
PRINT4
 10
282.5434111706844
 20
-198.0219272908176
 30
0.0
  0
SEQEND
  5
AB
  8
PRINT4
  0
POLYLINE
  5
AC
  8
PRINT4
 66
     1
 10
0.0
 20
0.0
 30
0.0
 70
     1
  0
VERTEX
  5
AD
  8
PRINT4
 10
282.4468106932779
 20
-198.5003477008543
 30
0.0
  0
VERTEX
  5
AE
  8
PRINT4
 10
282.5434111706844
 20
-198.5003477008543
 30
0.0
  0
VERTEX
  5
AF
  8
PRINT4
 10
282.5434111706844
 20
-198.2150248927659
 30
0.0
  0
VERTEX
  5
B0
  8
PRINT4
 10
282.4468106932779
 20
-198.2150248927659
 30
0.0
  0
VERTEX
  5
B1
  8
PRINT4
 10
282.4468106932779
 20
-198.1141524969578
 30
0.0
  0
VERTEX
  5
B2
  8
PRINT4
 10
282.6451792913186
 20
-198.1141524969578
 30
0.0
  0
VERTEX
  5
B3
  8
PRINT4
 10
282.6451792913186
 20
-198.5003477008543
 30
0.0
  0
VERTEX
  5
B4
  8
PRINT4
 10
282.7417108668153
 20
-198.5003477008543
 30
0.0
  0
VERTEX
  5
B5
  8
PRINT4
 10
282.7417108668153
 20
-198.6021502724434
 30
0.0
  0
VERTEX
  5
B6
  8
PRINT4
 10
282.4468106932779
 20
-198.6021502724434
 30
0.0
  0
SEQEND
  5
B7
  8
PRINT4
  0
POLYLINE
  5
B8
  8
PRINT4
 66
     1
 10
0.0
 20
0.0
 30
0.0
 70
     1
  0
VERTEX
  5
B9
  8
PRINT4
 10
281.8729955892547
 20
-198.2106840724545
 30
0.0
  0
VERTEX
  5
BA
  8
PRINT4
 10
281.9695271647514
 20
-198.2106840724545
 30
0.0
  0
VERTEX
  5
BB
  8
PRINT4
 10
281.9695271647514
 20
-198.1141524969578
 30
0.0
  0
VERTEX
  5
BC
  8
PRINT4
 10
282.2644273382888
 20
-198.1141524969578
 30
0.0
  0
VERTEX
  5
BD
  8
PRINT4
 10
282.2644273382888
 20
-198.3115909192174
 30
0.0
  0
VERTEX
  5
BE
  8
PRINT4
 10
282.1635204915258
 20
-198.3115909192174
 30
0.0
  0
VERTEX
  5
BF
  8
PRINT4
 10
282.1635204915258
 20
-198.2150248927659
 30
0.0
  0
VERTEX
  5
C0
  8
PRINT4
 10
281.974763709889
 20
-198.2150248927659
 30
0.0
  0
VERTEX
  5
C1
  8
PRINT4
 10
281.974763709889
 20
-198.5003477008543
 30
0.0
  0
VERTEX
  5
C2
  8
PRINT4
 10
282.2644273382888
 20
-198.5003477008543
 30
0.0
  0
VERTEX
  5
C3
  8
PRINT4
 10
282.2644273382888
 20
-198.6021502724434
 30
0.0
  0
VERTEX
  5
C4
  8
PRINT4
 10
281.9695271647514
 20
-198.6021502724434
 30
0.0
  0
VERTEX
  5
C5
  8
PRINT4
 10
281.9695271647514
 20
-198.5055842459919
 30
0.0
  0
VERTEX
  5
C6
  8
PRINT4
 10
281.8729955892547
 20
-198.5055842459919
 30
0.0
  0
SEQEND
  5
C7
  8
PRINT4
  0
POLYLINE
  5
C8
  8
PRINT4
 66
     1
 10
0.0
 20
0.0
 30
0.0
 70
     1
  0
VERTEX
  5
C9
  8
PRINT4
 10
281.4922436362249
 20
-197.9201591701833
 30
0.0
  0
VERTEX
  5
CA
  8
PRINT4
 10
281.5940117568592
 20
-197.9201591701833
 30
0.0
  0
VERTEX
  5
CB
  8
PRINT4
 10
281.5940117568592
 20
-198.0219272908176
 30
0.0
  0
VERTEX
  5
CC
  8
PRINT4
 10
281.4922436362249
 20
-198.0219272908176
 30
0.0
  0
SEQEND
  5
CD
  8
PRINT4
  0
POLYLINE
  5
CE
  8
PRINT4
 66
     1
 10
0.0
 20
0.0
 30
0.0
 70
     1
  0
VERTEX
  5
CF
  8
PRINT4
 10
281.3957120607282
 20
-198.5003477008543
 30
0.0
  0
VERTEX
  5
D0
  8
PRINT4
 10
281.4922436362249
 20
-198.5003477008543
 30
0.0
  0
VERTEX
  5
D1
  8
PRINT4
 10
281.4922436362249
 20
-198.2150248927659
 30
0.0
  0
VERTEX
  5
D2
  8
PRINT4
 10
281.3957120607282
 20
-198.2150248927659
 30
0.0
  0
VERTEX
  5
D3
  8
PRINT4
 10
281.3957120607282
 20
-198.1141524969578
 30
0.0
  0
VERTEX
  5
D4
  8
PRINT4
 10
281.5940117568592
 20
-198.1141524969578
 30
0.0
  0
VERTEX
  5
D5
  8
PRINT4
 10
281.5940117568592
 20
-198.5003477008543
 30
0.0
  0
VERTEX
  5
D6
  8
PRINT4
 10
281.6906122342656
 20
-198.5003477008543
 30
0.0
  0
VERTEX
  5
D7
  8
PRINT4
 10
281.6906122342656
 20
-198.6021502724434
 30
0.0
  0
VERTEX
  5
D8
  8
PRINT4
 10
281.3957120607282
 20
-198.6021502724434
 30
0.0
  0
SEQEND
  5
D9
  8
PRINT4
  0
POLYLINE
  5
DA
  8
PRINT4
 66
     1
 10
0.0
 20
0.0
 30
0.0
 70
     1
  0
VERTEX
  5
DB
  8
PRINT4
 10
280.8557966962799
 20
-198.5003477008543
 30
0.0
  0
VERTEX
  5
DC
  8
PRINT4
 10
280.9523282717765
 20
-198.5003477008543
 30
0.0
  0
VERTEX
  5
DD
  8
PRINT4
 10
280.9523282717765
 20
-198.2150248927659
 30
0.0
  0
VERTEX
  5
DE
  8
PRINT4
 10
280.8557966962799
 20
-198.2150248927659
 30
0.0
  0
VERTEX
  5
DF
  8
PRINT4
 10
280.8557966962799
 20
-198.1141524969578
 30
0.0
  0
VERTEX
  5
E0
  8
PRINT4
 10
280.9523282717765
 20
-198.1141524969578
 30
0.0
  0
VERTEX
  5
E1
  8
PRINT4
 10
280.9523282717765
 20
-198.0175864705062
 30
0.0
  0
VERTEX
  5
E2
  8
PRINT4
 10
281.0497555720994
 20
-198.0175864705062
 30
0.0
  0
VERTEX
  5
E3
  8
PRINT4
 10
281.0497555720994
 20
-197.9201591701833
 30
0.0
  0
VERTEX
  5
E4
  8
PRINT4
 10
281.3437600208106
 20
-197.9201591701833
 30
0.0
  0
VERTEX
  5
E5
  8
PRINT4
 10
281.3437600208106
 20
-198.0219272908176
 30
0.0
  0
VERTEX
  5
E6
  8
PRINT4
 10
281.0540963924108
 20
-198.0219272908176
 30
0.0
  0
VERTEX
  5
E7
  8
PRINT4
 10
281.0540963924108
 20
-198.1141524969578
 30
0.0
  0
VERTEX
  5
E8
  8
PRINT4
 10
281.2472284453139
 20
-198.1141524969578
 30
0.0
  0
VERTEX
  5
E9
  8
PRINT4
 10
281.2472284453139
 20
-198.2150248927659
 30
0.0
  0
VERTEX
  5
EA
  8
PRINT4
 10
281.0540963924108
 20
-198.2150248927659
 30
0.0
  0
VERTEX
  5
EB
  8
PRINT4
 10
281.0540963924108
 20
-198.5003477008543
 30
0.0
  0
VERTEX
  5
EC
  8
PRINT4
 10
281.1506968698172
 20
-198.5003477008543
 30
0.0
  0
VERTEX
  5
ED
  8
PRINT4
 10
281.1506968698172
 20
-198.6021502724434
 30
0.0
  0
VERTEX
  5
EE
  8
PRINT4
 10
280.8557966962799
 20
-198.6021502724434
 30
0.0
  0
SEQEND
  5
EF
  8
PRINT4
  0
POLYLINE
  5
F0
  8
PRINT4
 66
     1
 10
0.0
 20
0.0
 30
0.0
 70
     1
  0
VERTEX
  5
F1
  8
PRINT4
 10
280.3158813318315
 20
-198.5003477008543
 30
0.0
  0
VERTEX
  5
F2
  8
PRINT4
 10
280.4124129073282
 20
-198.5003477008543
 30
0.0
  0
VERTEX
  5
F3
  8
PRINT4
 10
280.4124129073282
 20
-198.2150248927659
 30
0.0
  0
VERTEX
  5
F4
  8
PRINT4
 10
280.3158813318315
 20
-198.2150248927659
 30
0.0
  0
VERTEX
  5
F5
  8
PRINT4
 10
280.3158813318315
 20
-198.1141524969578
 30
0.0
  0
VERTEX
  5
F6
  8
PRINT4
 10
280.4124129073282
 20
-198.1141524969578
 30
0.0
  0
VERTEX
  5
F7
  8
PRINT4
 10
280.4124129073282
 20
-198.0175864705062
 30
0.0
  0
VERTEX
  5
F8
  8
PRINT4
 10
280.5098402076511
 20
-198.0175864705062
 30
0.0
  0
VERTEX
  5
F9
  8
PRINT4
 10
280.5098402076511
 20
-197.9201591701833
 30
0.0
  0
VERTEX
  5
FA
  8
PRINT4
 10
280.8038446563623
 20
-197.9201591701833
 30
0.0
  0
VERTEX
  5
FB
  8
PRINT4
 10
280.8038446563623
 20
-198.0219272908176
 30
0.0
  0
VERTEX
  5
FC
  8
PRINT4
 10
280.5141810279625
 20
-198.0219272908176
 30
0.0
  0
VERTEX
  5
FD
  8
PRINT4
 10
280.5141810279625
 20
-198.1141524969578
 30
0.0
  0
VERTEX
  5
FE
  8
PRINT4
 10
280.7073130808656
 20
-198.1141524969578
 30
0.0
  0
VERTEX
  5
FF
  8
PRINT4
 10
280.7073130808656
 20
-198.2150248927659
 30
0.0
  0
VERTEX
  5
100
  8
PRINT4
 10
280.5141810279625
 20
-198.2150248927659
 30
0.0
  0
VERTEX
  5
101
  8
PRINT4
 10
280.5141810279625
 20
-198.5003477008543
 30
0.0
  0
VERTEX
  5
102
  8
PRINT4
 10
280.6107815053689
 20
-198.5003477008543
 30
0.0
  0
VERTEX
  5
103
  8
PRINT4
 10
280.6107815053689
 20
-198.6021502724434
 30
0.0
  0
VERTEX
  5
104
  8
PRINT4
 10
280.3158813318315
 20
-198.6021502724434
 30
0.0
  0
SEQEND
  5
105
  8
PRINT4
  0
POLYLINE
  5
106
  8
PRINT4
 66
     1
 10
0.0
 20
0.0
 30
0.0
 70
     1
  0
VERTEX
  5
107
  8
PRINT4
 10
279.7468204595779
 20
-198.2150248927659
 30
0.0
  0
VERTEX
  5
108
  8
PRINT4
 10
279.7468204595779
 20
-198.5003477008543
 30
0.0
  0
VERTEX
  5
109
  8
PRINT4
 10
280.0321432676663
 20
-198.5003477008543
 30
0.0
  0
VERTEX
  5
10A
  8
PRINT4
 10
280.0321432676663
 20
-198.2150248927659
 30
0.0
  0
SEQEND
  5
10B
  8
PRINT4
  0
POLYLINE
  5
10C
  8
PRINT4
 66
     1
 10
0.0
 20
0.0
 30
0.0
 70
     1
  0
VERTEX
  5
10D
  8
PRINT4
 10
279.6450178879888
 20
-198.2106840724545
 30
0.0
  0
VERTEX
  5
10E
  8
PRINT4
 10
279.7415839144404
 20
-198.2106840724545
 30
0.0
  0
VERTEX
  5
10F
  8
PRINT4
 10
279.7415839144404
 20
-198.1141524969578
 30
0.0
  0
VERTEX
  5
110
  8
PRINT4
 10
280.0364840879777
 20
-198.1141524969578
 30
0.0
  0
VERTEX
  5
111
  8
PRINT4
 10
280.0364840879777
 20
-198.2106840724545
 30
0.0
  0
VERTEX
  5
112
  8
PRINT4
 10
280.1330156634745
 20
-198.2106840724545
 30
0.0
  0
VERTEX
  5
113
  8
PRINT4
 10
280.1330156634745
 20
-198.5055842459919
 30
0.0
  0
VERTEX
  5
114
  8
PRINT4
 10
280.0364840879777
 20
-198.5055842459919
 30
0.0
  0
VERTEX
  5
115
  8
PRINT4
 10
280.0364840879777
 20
-198.6021502724434
 30
0.0
  0
VERTEX
  5
116
  8
PRINT4
 10
279.7415839144404
 20
-198.6021502724434
 30
0.0
  0
VERTEX
  5
117
  8
PRINT4
 10
279.7415839144404
 20
-198.5055842459919
 30
0.0
  0
VERTEX
  5
118
  8
PRINT4
 10
279.6450178879888
 20
-198.5055842459919
 30
0.0
  0
SEQEND
  5
119
  8
PRINT4
  0
POLYLINE
  5
11A
  8
PRINT4
 66
     1
 10
0.0
 20
0.0
 30
0.0
 70
     1
  0
VERTEX
  5
11B
  8
PRINT4
 10
279.2643003859138
 20
-198.0219272908176
 30
0.0
  0
VERTEX
  5
11C
  8
PRINT4
 10
279.1677343594623
 20
-198.0219272908176
 30
0.0
  0
VERTEX
  5
11D
  8
PRINT4
 10
279.1677343594623
 20
-197.9201591701833
 30
0.0
  0
VERTEX
  5
11E
  8
PRINT4
 10
279.3660685065481
 20
-197.9201591701833
 30
0.0
  0
VERTEX
  5
11F
  8
PRINT4
 10
279.3660685065481
 20
-198.5003477008543
 30
0.0
  0
VERTEX
  5
120
  8
PRINT4
 10
279.4626000820448
 20
-198.5003477008543
 30
0.0
  0
VERTEX
  5
121
  8
PRINT4
 10
279.4626000820448
 20
-198.6021502724434
 30
0.0
  0
VERTEX
  5
122
  8
PRINT4
 10
279.2643003859138
 20
-198.6021502724434
 30
0.0
  0
SEQEND
  5
123
  8
PRINT4
  0
POLYLINE
  5
124
  8
PRINT4
 66
     1
 10
0.0
 20
0.0
 30
0.0
 70
     1
  0
VERTEX
  5
125
  8
PRINT4
 10
278.6429429641942
 20
-198.2106840724545
 30
0.0
  0
VERTEX
  5
126
  8
PRINT4
 10
278.7395434416006
 20
-198.2106840724545
 30
0.0
  0
VERTEX
  5
127
  8
PRINT4
 10
278.7395434416006
 20
-198.1141524969578
 30
0.0
  0
VERTEX
  5
128
  8
PRINT4
 10
279.0344091641831
 20
-198.1141524969578
 30
0.0
  0
VERTEX
  5
129
  8
PRINT4
 10
279.0344091641831
 20
-198.3115909192174
 30
0.0
  0
VERTEX
  5
12A
  8
PRINT4
 10
278.9335023174202
 20
-198.3115909192174
 30
0.0
  0
VERTEX
  5
12B
  8
PRINT4
 10
278.9335023174202
 20
-198.2150248927659
 30
0.0
  0
VERTEX
  5
12C
  8
PRINT4
 10
278.7447110848285
 20
-198.2150248927659
 30
0.0
  0
VERTEX
  5
12D
  8
PRINT4
 10
278.7447110848285
 20
-198.5003477008543
 30
0.0
  0
VERTEX
  5
12E
  8
PRINT4
 10
279.0344091641831
 20
-198.5003477008543
 30
0.0
  0
VERTEX
  5
12F
  8
PRINT4
 10
279.0344091641831
 20
-198.6021502724434
 30
0.0
  0
VERTEX
  5
130
  8
PRINT4
 10
278.7395434416006
 20
-198.6021502724434
 30
0.0
  0
VERTEX
  5
131
  8
PRINT4
 10
278.7395434416006
 20
-198.5055842459919
 30
0.0
  0
VERTEX
  5
132
  8
PRINT4
 10
278.6429429641942
 20
-198.5055842459919
 30
0.0
  0
SEQEND
  5
133
  8
PRINT4
  0
POLYLINE
  5
134
  8
PRINT4
 66
     1
 10
0.0
 20
0.0
 30
0.0
 70
     1
  0
VERTEX
  5
135
  8
PRINT4
 10
278.262259913074
 20
-197.9201591701833
 30
0.0
  0
VERTEX
  5
136
  8
PRINT4
 10
278.3640280337083
 20
-197.9201591701833
 30
0.0
  0
VERTEX
  5
137
  8
PRINT4
 10
278.3640280337083
 20
-198.0219272908176
 30
0.0
  0
VERTEX
  5
138
  8
PRINT4
 10
278.262259913074
 20
-198.0219272908176
 30
0.0
  0
SEQEND
  5
139
  8
PRINT4
  0
POLYLINE
  5
13A
  8
PRINT4
 66
     1
 10
0.0
 20
0.0
 30
0.0
 70
     1
  0
VERTEX
  5
13B
  8
PRINT4
 10
278.1656594356676
 20
-198.5003477008543
 30
0.0
  0
VERTEX
  5
13C
  8
PRINT4
 10
278.262259913074
 20
-198.5003477008543
 30
0.0
  0
VERTEX
  5
13D
  8
PRINT4
 10
278.262259913074
 20
-198.2150248927659
 30
0.0
  0
VERTEX
  5
13E
  8
PRINT4
 10
278.1656594356676
 20
-198.2150248927659
 30
0.0
  0
VERTEX
  5
13F
  8
PRINT4
 10
278.1656594356676
 20
-198.1141524969578
 30
0.0
  0
VERTEX
  5
140
  8
PRINT4
 10
278.3640280337083
 20
-198.1141524969578
 30
0.0
  0
VERTEX
  5
141
  8
PRINT4
 10
278.3640280337083
 20
-198.5003477008543
 30
0.0
  0
VERTEX
  5
142
  8
PRINT4
 10
278.4605596092051
 20
-198.5003477008543
 30
0.0
  0
VERTEX
  5
143
  8
PRINT4
 10
278.4605596092051
 20
-198.6021502724434
 30
0.0
  0
VERTEX
  5
144
  8
PRINT4
 10
278.1656594356676
 20
-198.6021502724434
 30
0.0
  0
SEQEND
  5
145
  8
PRINT4
  0
POLYLINE
  5
146
  8
PRINT4
 66
     1
 10
0.0
 20
0.0
 30
0.0
 70
     1
  0
VERTEX
  5
147
  8
PRINT4
 10
277.4948304427798
 20
-198.0175864705062
 30
0.0
  0
VERTEX
  5
148
  8
PRINT4
 10
277.5913620182765
 20
-198.0175864705062
 30
0.0
  0
VERTEX
  5
149
  8
PRINT4
 10
277.5913620182765
 20
-197.9201591701833
 30
0.0
  0
VERTEX
  5
14A
  8
PRINT4
 10
277.9827937673106
 20
-197.9201591701833
 30
0.0
  0
VERTEX
  5
14B
  8
PRINT4
 10
277.9827937673106
 20
-198.1184933172692
 30
0.0
  0
VERTEX
  5
14C
  8
PRINT4
 10
277.8819213715025
 20
-198.1184933172692
 30
0.0
  0
VERTEX
  5
14D
  8
PRINT4
 10
277.8819213715025
 20
-198.0219272908176
 30
0.0
  0
VERTEX
  5
14E
  8
PRINT4
 10
277.5965985634141
 20
-198.0219272908176
 30
0.0
  0
VERTEX
  5
14F
  8
PRINT4
 10
277.5965985634141
 20
-198.5003477008543
 30
0.0
  0
VERTEX
  5
150
  8
PRINT4
 10
277.8819213715025
 20
-198.5003477008543
 30
0.0
  0
VERTEX
  5
151
  8
PRINT4
 10
277.8819213715025
 20
-198.4038161253576
 30
0.0
  0
VERTEX
  5
152
  8
PRINT4
 10
277.9827937673106
 20
-198.4038161253576
 30
0.0
  0
VERTEX
  5
153
  8
PRINT4
 10
277.9827937673106
 20
-198.6021502724434
 30
0.0
  0
VERTEX
  5
154
  8
PRINT4
 10
277.5913620182765
 20
-198.6021502724434
 30
0.0
  0
VERTEX
  5
155
  8
PRINT4
 10
277.5913620182765
 20
-198.5055842459919
 30
0.0
  0
VERTEX
  5
156
  8
PRINT4
 10
277.4948304427798
 20
-198.5055842459919
 30
0.0
  0
SEQEND
  5
157
  8
PRINT4
  0
LINE
  5
158
  8
PRINT4
 62
   240
 10
275.5713794410449
 20
-199.5580388358047
 30
0.0
 11
287.5860754994983
 21
-199.5580388358047
 31
0.0
  0
LINE
  5
159
  8
PRINT4
 62
   240
 10
270.7476968734219
 20
-192.6618608112205
 30
0.0
 11
275.5713794410449
 21
-199.5580388358047
 31
0.0
  0
LINE
  5
15A
  8
PRINT4
 62
   240
 10
274.0176410772979
 20
-192.5596418869389
 30
0.0
 11
275.6729962996038
 21
-194.9529022746571
 31
0.0
  0
LINE
  5
15B
  8
PRINT4
 62
   240
 10
271.7745660255619
 20
-194.1299243460479
 30
0.0
 11
274.0176410772979
 21
-192.5596418869389
 31
0.0
  0
LINE
  5
15C
  8
PRINT4
 62
   240
 10
294.089186320612
 20
-208.7359521802627
 30
0.0
 11
291.5713640777216
 21
-205.1825213688163
 31
0.0
  0
LINE
  5
15D
  8
PRINT4
 62
   240
 10
294.089186320612
 20
-221.1731222803116
 30
0.0
 11
294.089186320612
 21
-208.7359521802627
 31
0.0
  0
LINE
  5
15E
  8
PRINT4
 62
   240
 10
295.790608079952
 20
-221.1731222803116
 30
0.0
 11
294.089186320612
 21
-221.1731222803116
 31
0.0
  0
LINE
  5
15F
  8
PRINT4
 62
   240
 10
291.2729714942834
 20
-203.1432158221308
 30
0.0
 11
291.3793815023216
 21
-202.2442992724395
 31
0.0
  0
LINE
  5
160
  8
PRINT4
 62
   240
 10
292.1718880439748
 20
-203.2496258301693
 30
0.0
 11
291.2729714942834
 21
-203.1432158221308
 31
0.0
  0
LINE
  5
161
  8
PRINT4
 62
   240
 10
267.0599629514443
 20
-192.0168023332412
 30
0.0
 11
267.0320278944108
 21
-199.3619267753069
 31
0.0
  0
LINE
  5
162
  8
PRINT4
 62
   240
 10
276.9864007672789
 20
-184.5985988311996
 30
0.0
 11
267.0599629514443
 21
-192.0168023332412
 31
0.0
  0
LINE
  5
163
  8
PRINT4
 62
   240
 10
289.496600628783
 20
-202.2543844096884
 30
0.0
 11
276.9864007672789
 21
-184.5985988311996
 31
0.0
  0
LINE
  5
164
  8
PRINT4
 62
   240
 10
294.089186320612
 20
-208.7359521802627
 30
0.0
 11
294.089186320612
 21
-221.1731222803116
 31
0.0
  0
LINE
  5
165
  8
PRINT4
 62
   240
 10
292.9080823271538
 20
-207.0761234523257
 30
0.0
 11
294.089186320612
 21
-208.7359521802627
 31
0.0
  0
LINE
  5
166
  8
PRINT4
 62
   240
 10
292.7609018542525
 20
-207.0765328919691
 30
0.0
 11
292.9080823271538
 21
-207.0761234523257
 31
0.0
  0
LINE
  5
167
  8
PRINT4
 62
   240
 10
276.2046456954886
 20
-207.0765328919691
 30
0.0
 11
292.7609018542525
 21
-207.0765328919691
 31
0.0
  0
LINE
  5
168
  8
PRINT4
 62
   240
 10
276.2046456954886
 20
-210.4261265338255
 30
0.0
 11
276.2046456954886
 21
-207.0765328919691
 31
0.0
  0
LINE
  5
169
  8
PRINT4
 62
   240
 10
260.8323276260529
 20
-210.4601382390036
 30
0.0
 11
276.2046456954886
 21
-210.4261265338255
 31
0.0
  0
LINE
  5
16A
  8
PRINT4
 62
   240
 10
260.8348031018762
 20
-207.6651236590818
 30
0.0
 11
260.8323276260529
 21
-210.4601382390036
 31
0.0
  0
LINE
  5
16B
  8
PRINT4
 62
   240
 10
276.5034965101759
 20
-194.3715040232083
 30
0.0
 11
278.1053607030829
 21
-196.700530429981
 31
0.0
  0
LINE
  5
16C
  8
PRINT4
 62
   240
 10
273.443387408101
 20
-196.5137576416188
 30
0.0
 11
281.4549913141782
 21
-190.9051708610272
 31
0.0
  0
LINE
  5
16D
  8
PRINT4
 62
   240
 10
269.298449179038
 20
-193.676418018253
 30
0.0
 11
278.7368329755584
 21
-187.0690034675128
 31
0.0
  0
LINE
  5
16E
  8
PRINT4
 62
   240
 10
267.6660423597846
 20
-191.5550401840397
 30
0.0
 11
269.298449179038
 21
-193.676418018253
 31
0.0
  0
LINE
  5
16F
  8
PRINT4
 62
   240
 10
273.3853200744607
 20
-215.6567905409383
 30
0.0
 11
294.089186320612
 21
-215.6567905409383
 31
0.0
  0
LINE
  5
170
  8
PRINT4
 62
   240
 10
294.089186320612
 20
-221.1731222803116
 30
0.0
 11
295.790608079952
 21
-221.1731222803116
 31
0.0
  0
POLYLINE
  5
171
  8
PRINT4
 66
     1
 10
0.0
 20
0.0
 30
0.0
 70
     1
  0
VERTEX
  5
172
  8
PRINT4
 10
338.205694359893
 20
-236.0102777187752
 30
0.0
  0
VERTEX
  5
173
  8
PRINT4
 10
258.2056943798929
 20
-236.0102777187752
 30
0.0
  0
VERTEX
  5
174
  8
PRINT4
 10
258.2056943798929
 20
-181.0102777325252
 30
0.0
  0
VERTEX
  5
175
  8
PRINT4
 10
338.205694359893
 20
-181.0102777325252
 30
0.0
  0
SEQEND
  5
176
  8
PRINT4
  0
ENDSEC
  0
EOF
